<?xml version="1.0" encoding="utf-8"?>
<!-- Generator: Adobe Illustrator 18.0.0, SVG Export Plug-In . SVG Version: 6.00 Build 0)  -->
<!DOCTYPE svg PUBLIC "-//W3C//DTD SVG 1.1//EN" "http://www.w3.org/Graphics/SVG/1.1/DTD/svg11.dtd">
<svg version="1.1" id="Layer_1" xmlns="http://www.w3.org/2000/svg" xmlns:xlink="http://www.w3.org/1999/xlink" x="0px" y="0px"
	 width="335.3px" height="125px" viewBox="0 0 335.3 125" enable-background="new 0 0 335.3 125" xml:space="preserve">
<linearGradient id="SVGID_1_" gradientUnits="userSpaceOnUse" x1="311.2691" y1="70.9533" x2="233.3425" y2="70.9533">
	<stop  offset="0" style="stop-color:#FA8A9C"/>
	<stop  offset="0.1649" style="stop-color:#E696AE"/>
	<stop  offset="0.7323" style="stop-color:#A5BEE8"/>
	<stop  offset="1" style="stop-color:#8CCDFF"/>
</linearGradient>
<path fill="none" stroke="url(#SVGID_1_)" stroke-width="2" stroke-miterlimit="10" d="M289.4,106.9c12.4-6.2,20.9-19.1,20.9-33.9
	c0-21-17-38-38-38s-38,17-38,38c0,14.9,8.6,27.8,21.2,34"/>
<g>
	<path stroke="#FFFFFF" stroke-miterlimit="10" d="M216.1,94l1.6,5l1.8-5h1.6v10h-1.2v-4l0.1-4.2l-1.8,5.4h-0.7l-1.7-5.2l0.1,4v4
		h-1.2V94H216.1z"/>
	<path stroke="#FFFFFF" stroke-miterlimit="10" d="M227.9,103.9c0-0.1-0.1-0.2-0.1-0.4c0-0.1-0.1-0.3-0.1-0.4
		c-0.1,0.1-0.3,0.2-0.4,0.4c-0.2,0.1-0.3,0.2-0.5,0.3c-0.2,0.1-0.4,0.2-0.6,0.2s-0.4,0.1-0.7,0.1c-0.4,0-0.7-0.1-1.1-0.2
		c-0.3-0.1-0.6-0.3-0.8-0.5c-0.2-0.2-0.4-0.4-0.5-0.7c-0.1-0.3-0.2-0.6-0.2-0.9c0-0.4,0.1-0.8,0.2-1.1c0.2-0.3,0.4-0.6,0.7-0.8
		c0.3-0.2,0.7-0.4,1.1-0.5c0.4-0.1,0.9-0.2,1.4-0.2h1.4v-0.6c0-0.2,0-0.4-0.1-0.6s-0.2-0.3-0.3-0.5c-0.2-0.1-0.3-0.2-0.6-0.3
		c-0.2-0.1-0.5-0.1-0.7-0.1c-0.3,0-0.5,0-0.7,0.1c-0.2,0.1-0.4,0.1-0.5,0.3s-0.2,0.2-0.3,0.4c-0.1,0.1-0.1,0.3-0.1,0.4h-1.3
		c0-0.3,0.1-0.5,0.2-0.8c0.1-0.3,0.3-0.5,0.6-0.7c0.3-0.2,0.6-0.4,0.9-0.5c0.4-0.1,0.8-0.2,1.2-0.2c0.4,0,0.8,0.1,1.2,0.2
		c0.4,0.1,0.7,0.3,0.9,0.5c0.3,0.2,0.5,0.5,0.6,0.8s0.2,0.7,0.2,1.1v3.4c0,0.2,0,0.5,0.1,0.8c0,0.3,0.1,0.5,0.2,0.7v0.1H227.9z
		 M225.7,103c0.2,0,0.5,0,0.7-0.1s0.4-0.1,0.6-0.3c0.2-0.1,0.3-0.2,0.5-0.4c0.1-0.1,0.2-0.3,0.3-0.4v-1.5h-1.2
		c-0.7,0-1.3,0.1-1.7,0.3s-0.6,0.6-0.6,1c0,0.2,0,0.4,0.1,0.5c0.1,0.2,0.2,0.3,0.3,0.4c0.1,0.1,0.3,0.2,0.5,0.3S225.5,103,225.7,103
		z"/>
	<path stroke="#FFFFFF" stroke-miterlimit="10" d="M236.3,96.4c0.1,0,0.2,0,0.4,0c0.1,0,0.2,0,0.4,0c0.1,0,0.2,0,0.3,0.1
		c0.1,0,0.2,0,0.2,0.1l-0.2,1.2c-0.2-0.1-0.5-0.1-0.7-0.1c-0.2,0-0.5,0-0.7,0c-0.6,0-1.1,0.1-1.4,0.4c-0.4,0.3-0.6,0.6-0.8,1.1v4.7
		h-1.3v-7.4h1.2l0.1,1.2c0.3-0.4,0.7-0.7,1.1-1C235.3,96.5,235.8,96.4,236.3,96.4z"/>
	<path stroke="#FFFFFF" stroke-miterlimit="10" d="M244.7,96.4c0.1,0,0.2,0,0.4,0c0.1,0,0.2,0,0.4,0c0.1,0,0.2,0,0.3,0.1
		c0.1,0,0.2,0,0.2,0.1l-0.2,1.2c-0.2-0.1-0.5-0.1-0.7-0.1c-0.2,0-0.5,0-0.7,0c-0.6,0-1.1,0.1-1.4,0.4c-0.4,0.3-0.6,0.6-0.8,1.1v4.7
		h-1.3v-7.4h1.2l0.1,1.2c0.3-0.4,0.7-0.7,1.1-1C243.7,96.5,244.2,96.4,244.7,96.4z"/>
	<path stroke="#FFFFFF" stroke-miterlimit="10" d="M248.5,96.5h3.8v6.3h2.4v1.1h-6.2v-1.1h2.5v-5.2h-2.5V96.5z M250.8,94.6
		c0-0.2,0.1-0.4,0.2-0.5c0.1-0.1,0.3-0.2,0.6-0.2c0.3,0,0.4,0.1,0.6,0.2c0.1,0.1,0.2,0.3,0.2,0.5c0,0.2-0.1,0.4-0.2,0.5
		s-0.3,0.2-0.6,0.2c-0.3,0-0.4-0.1-0.6-0.2C250.9,95,250.8,94.8,250.8,94.6z"/>
	<path stroke="#FFFFFF" stroke-miterlimit="10" d="M260,104.1c-0.5,0-1-0.1-1.4-0.3c-0.4-0.2-0.8-0.4-1.1-0.7s-0.6-0.7-0.7-1.1
		s-0.3-0.9-0.3-1.4v-0.3c0-0.6,0.1-1.1,0.3-1.6c0.2-0.5,0.4-0.9,0.8-1.2c0.3-0.3,0.7-0.6,1.1-0.7c0.4-0.2,0.8-0.3,1.2-0.3
		c0.5,0,1,0.1,1.4,0.3c0.4,0.2,0.7,0.4,1,0.8c0.3,0.3,0.5,0.7,0.6,1.2c0.1,0.4,0.2,0.9,0.2,1.4v0.6h-5.3c0,0.3,0.1,0.7,0.2,1
		c0.1,0.3,0.3,0.6,0.5,0.8c0.2,0.2,0.4,0.4,0.7,0.5s0.6,0.2,0.9,0.2c0.5,0,0.9-0.1,1.2-0.3s0.6-0.4,0.9-0.7l0.8,0.6
		c-0.1,0.2-0.3,0.4-0.5,0.5c-0.2,0.2-0.4,0.3-0.6,0.5s-0.5,0.2-0.8,0.3C260.7,104,260.3,104.1,260,104.1z M259.8,97.4
		c-0.3,0-0.5,0-0.7,0.1c-0.2,0.1-0.4,0.2-0.6,0.4c-0.2,0.2-0.3,0.4-0.5,0.7c-0.1,0.3-0.2,0.6-0.3,0.9h4v-0.1c0-0.2-0.1-0.5-0.1-0.7
		c-0.1-0.2-0.2-0.5-0.4-0.6s-0.3-0.3-0.6-0.5C260.4,97.5,260.1,97.4,259.8,97.4z"/>
	<path stroke="#FFFFFF" stroke-miterlimit="10" d="M270,102c0-0.2,0-0.3-0.1-0.4c-0.1-0.1-0.2-0.2-0.3-0.3s-0.3-0.2-0.6-0.3
		c-0.2-0.1-0.5-0.2-0.9-0.2c-0.4-0.1-0.8-0.2-1.2-0.3c-0.3-0.1-0.6-0.3-0.9-0.4c-0.2-0.2-0.4-0.4-0.6-0.6c-0.1-0.2-0.2-0.5-0.2-0.8
		c0-0.3,0.1-0.6,0.2-0.8c0.1-0.3,0.3-0.5,0.6-0.7s0.6-0.4,0.9-0.5c0.4-0.1,0.7-0.2,1.2-0.2c0.5,0,0.9,0.1,1.2,0.2s0.7,0.3,0.9,0.5
		s0.5,0.5,0.6,0.7c0.1,0.3,0.2,0.6,0.2,0.9h-1.3c0-0.2,0-0.3-0.1-0.5c-0.1-0.2-0.2-0.3-0.3-0.4s-0.3-0.2-0.5-0.3
		c-0.2-0.1-0.4-0.1-0.7-0.1c-0.3,0-0.5,0-0.7,0.1c-0.2,0.1-0.4,0.1-0.5,0.2c-0.1,0.1-0.2,0.2-0.3,0.3s-0.1,0.3-0.1,0.4
		c0,0.1,0,0.3,0.1,0.4s0.1,0.2,0.3,0.3c0.1,0.1,0.3,0.2,0.5,0.2c0.2,0.1,0.5,0.1,0.9,0.2c0.5,0.1,0.9,0.2,1.2,0.3
		c0.4,0.1,0.7,0.3,0.9,0.5c0.2,0.2,0.4,0.4,0.6,0.6c0.1,0.2,0.2,0.5,0.2,0.8c0,0.3-0.1,0.6-0.2,0.9c-0.1,0.3-0.4,0.5-0.6,0.7
		s-0.6,0.3-1,0.4s-0.8,0.2-1.2,0.2c-0.5,0-0.9-0.1-1.3-0.2c-0.4-0.1-0.7-0.3-1-0.5c-0.3-0.2-0.5-0.5-0.6-0.8
		c-0.1-0.3-0.2-0.6-0.2-0.9h1.3c0,0.3,0.1,0.5,0.2,0.7c0.1,0.2,0.3,0.3,0.5,0.4c0.2,0.1,0.4,0.2,0.6,0.2s0.4,0.1,0.6,0.1
		c0.5,0,1-0.1,1.3-0.3S270,102.3,270,102z"/>
	<path stroke="#FFFFFF" stroke-miterlimit="10" d="M283,101.2l0.2,1.1l0.2-1.1l1.2-4.7h0.8l1.2,4.7l0.2,1.2l0.2-1.2l0.8-4.7h1.1
		l-1.6,7.4h-1l-1.2-4.5l-0.2-1.1l-0.2,1.1l-1.1,4.5h-1l-1.6-7.4h1.1L283,101.2z"/>
	<path stroke="#FFFFFF" stroke-miterlimit="10" d="M290.5,96.5h3.8v6.3h2.4v1.1h-6.2v-1.1h2.5v-5.2h-2.5V96.5z M292.8,94.6
		c0-0.2,0.1-0.4,0.2-0.5c0.1-0.1,0.3-0.2,0.6-0.2c0.3,0,0.4,0.1,0.6,0.2c0.1,0.1,0.2,0.3,0.2,0.5c0,0.2-0.1,0.4-0.2,0.5
		s-0.3,0.2-0.6,0.2c-0.3,0-0.4-0.1-0.6-0.2C292.9,95,292.8,94.8,292.8,94.6z"/>
	<path stroke="#FFFFFF" stroke-miterlimit="10" d="M301.7,94.7v1.8h2.8v1h-2.8v4c0,0.3,0,0.5,0.1,0.7s0.2,0.3,0.3,0.4
		c0.1,0.1,0.3,0.2,0.4,0.2c0.2,0,0.3,0.1,0.5,0.1c0.1,0,0.3,0,0.4,0c0.1,0,0.3,0,0.4-0.1c0.1,0,0.3,0,0.4-0.1c0.1,0,0.2,0,0.3-0.1
		l0.2,0.9c-0.1,0.1-0.2,0.1-0.4,0.2c-0.2,0-0.3,0.1-0.5,0.1c-0.2,0-0.4,0.1-0.6,0.1c-0.2,0-0.4,0-0.6,0c-0.3,0-0.6,0-0.9-0.1
		c-0.3-0.1-0.5-0.2-0.7-0.4c-0.2-0.2-0.4-0.5-0.5-0.8c-0.1-0.3-0.2-0.7-0.2-1.2v-4h-1.9v-1h1.9v-1.8H301.7z"/>
	<path stroke="#FFFFFF" stroke-miterlimit="10" d="M308.4,97.6c0.3-0.4,0.6-0.7,1-0.9c0.4-0.2,0.8-0.3,1.3-0.3
		c0.4,0,0.7,0.1,1.1,0.2c0.3,0.1,0.6,0.3,0.8,0.5s0.4,0.5,0.5,0.9c0.1,0.4,0.2,0.8,0.2,1.3v4.7h-1.3v-4.7c0-0.6-0.1-1.1-0.4-1.4
		c-0.3-0.3-0.7-0.4-1.2-0.4c-0.4,0-0.8,0.1-1.1,0.3c-0.3,0.2-0.6,0.5-0.8,0.8v5.4h-1.3V93.4h1.3V97.6z"/>
	<path stroke="#FFFFFF" stroke-miterlimit="10" d="M315.7,96.5h3.8v6.3h2.4v1.1h-6.2v-1.1h2.5v-5.2h-2.5V96.5z M318.1,94.6
		c0-0.2,0.1-0.4,0.2-0.5c0.1-0.1,0.3-0.2,0.6-0.2c0.3,0,0.4,0.1,0.6,0.2c0.1,0.1,0.2,0.3,0.2,0.5c0,0.2-0.1,0.4-0.2,0.5
		s-0.3,0.2-0.6,0.2c-0.3,0-0.4-0.1-0.6-0.2C318.1,95,318.1,94.8,318.1,94.6z"/>
	<path stroke="#FFFFFF" stroke-miterlimit="10" d="M325,96.5l0.1,1.1c0.3-0.4,0.6-0.7,1-0.9c0.4-0.2,0.8-0.3,1.3-0.3
		c0.4,0,0.7,0.1,1.1,0.2c0.3,0.1,0.6,0.3,0.8,0.5s0.4,0.5,0.5,0.9c0.1,0.4,0.2,0.8,0.2,1.3v4.7h-1.3v-4.7c0-0.3,0-0.6-0.1-0.8
		s-0.2-0.4-0.3-0.6c-0.1-0.1-0.3-0.2-0.5-0.3c-0.2-0.1-0.4-0.1-0.7-0.1c-0.4,0-0.8,0.1-1.1,0.3c-0.3,0.2-0.6,0.5-0.8,0.8v5.3h-1.3
		v-7.4H325z"/>
	<path stroke="#FFFFFF" stroke-miterlimit="10" d="M231.1,114.1c0-0.5,0.1-1,0.2-1.5c0.2-0.5,0.4-0.9,0.7-1.2
		c0.3-0.3,0.6-0.6,1.1-0.8c0.4-0.2,0.9-0.3,1.4-0.3c0.5,0,1,0.1,1.4,0.3c0.4,0.2,0.8,0.5,1.1,0.8c0.3,0.3,0.5,0.7,0.7,1.2
		c0.2,0.5,0.2,1,0.2,1.5v0.2c0,0.5-0.1,1-0.2,1.5s-0.4,0.9-0.7,1.2c-0.3,0.3-0.6,0.6-1.1,0.8s-0.9,0.3-1.4,0.3c-0.5,0-1-0.1-1.4-0.3
		c-0.4-0.2-0.8-0.5-1.1-0.8c-0.3-0.3-0.5-0.7-0.7-1.2s-0.2-1-0.2-1.5V114.1z M232.4,114.2c0,0.4,0,0.7,0.1,1
		c0.1,0.3,0.2,0.6,0.4,0.9c0.2,0.3,0.4,0.4,0.7,0.6s0.6,0.2,0.9,0.2c0.3,0,0.7-0.1,0.9-0.2c0.3-0.1,0.5-0.3,0.7-0.6
		c0.2-0.3,0.3-0.5,0.4-0.9c0.1-0.3,0.1-0.7,0.1-1v-0.2c0-0.4,0-0.7-0.1-1c-0.1-0.3-0.2-0.6-0.4-0.9c-0.2-0.3-0.4-0.5-0.7-0.6
		c-0.3-0.1-0.6-0.2-0.9-0.2s-0.7,0.1-0.9,0.2c-0.3,0.1-0.5,0.3-0.7,0.6c-0.2,0.3-0.3,0.5-0.4,0.9c-0.1,0.3-0.1,0.7-0.1,1V114.2z"/>
	<path stroke="#FFFFFF" stroke-miterlimit="10" d="M243,117c0.2,0,0.5,0,0.7-0.1c0.2-0.1,0.4-0.2,0.6-0.3c0.2-0.1,0.3-0.3,0.4-0.5
		c0.1-0.2,0.2-0.4,0.2-0.6h1.2c0,0.3-0.1,0.6-0.3,0.9c-0.2,0.3-0.4,0.6-0.7,0.8c-0.3,0.2-0.6,0.4-1,0.5c-0.4,0.1-0.7,0.2-1.1,0.2
		c-0.6,0-1.1-0.1-1.5-0.3s-0.8-0.5-1-0.8c-0.3-0.3-0.5-0.7-0.6-1.2c-0.1-0.4-0.2-0.9-0.2-1.4V114c0-0.5,0.1-1,0.2-1.4
		s0.4-0.8,0.6-1.2c0.3-0.3,0.6-0.6,1-0.8s0.9-0.3,1.5-0.3c0.4,0,0.8,0.1,1.2,0.2c0.4,0.1,0.7,0.3,1,0.6c0.3,0.2,0.5,0.5,0.6,0.9
		s0.2,0.7,0.2,1.1h-1.2c0-0.2-0.1-0.4-0.1-0.6c-0.1-0.2-0.2-0.4-0.4-0.5s-0.3-0.3-0.6-0.4c-0.2-0.1-0.5-0.1-0.7-0.1
		c-0.4,0-0.7,0.1-1,0.2c-0.3,0.2-0.5,0.4-0.6,0.6c-0.2,0.3-0.3,0.5-0.4,0.9c-0.1,0.3-0.1,0.6-0.1,1v0.3c0,0.3,0,0.6,0.1,1
		c0.1,0.3,0.2,0.6,0.3,0.9c0.2,0.3,0.4,0.5,0.6,0.6C242.3,116.9,242.6,117,243,117z"/>
	<path stroke="#FFFFFF" stroke-miterlimit="10" d="M251.4,117c0.2,0,0.5,0,0.7-0.1c0.2-0.1,0.4-0.2,0.6-0.3c0.2-0.1,0.3-0.3,0.4-0.5
		c0.1-0.2,0.2-0.4,0.2-0.6h1.2c0,0.3-0.1,0.6-0.3,0.9c-0.2,0.3-0.4,0.6-0.7,0.8c-0.3,0.2-0.6,0.4-1,0.5c-0.4,0.1-0.7,0.2-1.1,0.2
		c-0.6,0-1.1-0.1-1.5-0.3s-0.8-0.5-1-0.8c-0.3-0.3-0.5-0.7-0.6-1.2c-0.1-0.4-0.2-0.9-0.2-1.4V114c0-0.5,0.1-1,0.2-1.4
		s0.4-0.8,0.6-1.2c0.3-0.3,0.6-0.6,1-0.8s0.9-0.3,1.5-0.3c0.4,0,0.8,0.1,1.2,0.2c0.4,0.1,0.7,0.3,1,0.6c0.3,0.2,0.5,0.5,0.6,0.9
		s0.2,0.7,0.2,1.1h-1.2c0-0.2-0.1-0.4-0.1-0.6c-0.1-0.2-0.2-0.4-0.4-0.5s-0.3-0.3-0.6-0.4c-0.2-0.1-0.5-0.1-0.7-0.1
		c-0.4,0-0.7,0.1-1,0.2c-0.3,0.2-0.5,0.4-0.6,0.6c-0.2,0.3-0.3,0.5-0.4,0.9c-0.1,0.3-0.1,0.6-0.1,1v0.3c0,0.3,0,0.6,0.1,1
		c0.1,0.3,0.2,0.6,0.3,0.9c0.2,0.3,0.4,0.5,0.6,0.6C250.7,116.9,251,117,251.4,117z"/>
	<path stroke="#FFFFFF" stroke-miterlimit="10" d="M261.5,116.8c-0.2,0.4-0.6,0.6-0.9,0.9c-0.4,0.2-0.8,0.3-1.3,0.3
		c-0.4,0-0.7-0.1-1.1-0.2c-0.3-0.1-0.6-0.3-0.8-0.6s-0.4-0.6-0.5-1c-0.1-0.4-0.2-0.9-0.2-1.4v-4.4h1.3v4.4c0,0.4,0,0.7,0.1,1
		s0.2,0.5,0.3,0.6c0.1,0.2,0.3,0.3,0.5,0.3c0.2,0.1,0.4,0.1,0.6,0.1c0.5,0,0.9-0.1,1.2-0.3c0.3-0.2,0.6-0.5,0.7-0.8v-5.3h1.3v7.4
		h-1.1L261.5,116.8z"/>
	<path stroke="#FFFFFF" stroke-miterlimit="10" d="M271.3,114.2c0,0.5-0.1,1-0.2,1.5c-0.1,0.5-0.3,0.9-0.6,1.2s-0.5,0.6-0.9,0.8
		c-0.4,0.2-0.8,0.3-1.2,0.3c-0.5,0-0.8-0.1-1.2-0.2c-0.3-0.1-0.6-0.4-0.9-0.6v3.6h-1.3v-10.2h1.2l0.1,0.8c0.2-0.3,0.5-0.5,0.9-0.7
		c0.3-0.2,0.8-0.2,1.2-0.2c0.5,0,0.9,0.1,1.3,0.3s0.7,0.4,0.9,0.8s0.4,0.7,0.6,1.2c0.1,0.5,0.2,1,0.2,1.5V114.2z M270.1,114.1
		c0-0.4,0-0.7-0.1-1c-0.1-0.3-0.2-0.6-0.4-0.9c-0.2-0.2-0.4-0.4-0.6-0.6s-0.6-0.2-0.9-0.2c-0.4,0-0.7,0.1-1,0.3
		c-0.3,0.2-0.5,0.4-0.7,0.7v3.6c0.2,0.3,0.4,0.5,0.7,0.7c0.3,0.2,0.6,0.3,1,0.3c0.4,0,0.7-0.1,0.9-0.2c0.3-0.1,0.5-0.3,0.6-0.6
		s0.3-0.5,0.4-0.9c0.1-0.3,0.1-0.7,0.1-1V114.1z"/>
	<path stroke="#FFFFFF" stroke-miterlimit="10" d="M278.4,117.9c0-0.1-0.1-0.2-0.1-0.4c0-0.1-0.1-0.3-0.1-0.4
		c-0.1,0.1-0.3,0.2-0.4,0.4c-0.2,0.1-0.3,0.2-0.5,0.3c-0.2,0.1-0.4,0.2-0.6,0.2s-0.4,0.1-0.7,0.1c-0.4,0-0.7-0.1-1.1-0.2
		c-0.3-0.1-0.6-0.3-0.8-0.5c-0.2-0.2-0.4-0.4-0.5-0.7c-0.1-0.3-0.2-0.6-0.2-0.9c0-0.4,0.1-0.8,0.2-1.1c0.2-0.3,0.4-0.6,0.7-0.8
		c0.3-0.2,0.7-0.4,1.1-0.5c0.4-0.1,0.9-0.2,1.4-0.2h1.4v-0.6c0-0.2,0-0.4-0.1-0.6s-0.2-0.3-0.3-0.5c-0.2-0.1-0.3-0.2-0.6-0.3
		c-0.2-0.1-0.5-0.1-0.7-0.1c-0.3,0-0.5,0-0.7,0.1c-0.2,0.1-0.4,0.1-0.5,0.3s-0.2,0.2-0.3,0.4c-0.1,0.1-0.1,0.3-0.1,0.4h-1.3
		c0-0.3,0.1-0.5,0.2-0.8c0.1-0.3,0.3-0.5,0.6-0.7c0.3-0.2,0.6-0.4,0.9-0.5c0.4-0.1,0.8-0.2,1.2-0.2c0.4,0,0.8,0.1,1.2,0.2
		c0.4,0.1,0.7,0.3,0.9,0.5c0.3,0.2,0.5,0.5,0.6,0.8s0.2,0.7,0.2,1.1v3.4c0,0.2,0,0.5,0.1,0.8c0,0.3,0.1,0.5,0.2,0.7v0.1H278.4z
		 M276.1,116.9c0.2,0,0.5,0,0.7-0.1s0.4-0.1,0.6-0.3c0.2-0.1,0.3-0.2,0.5-0.4c0.1-0.1,0.2-0.3,0.3-0.4v-1.5H277
		c-0.7,0-1.3,0.1-1.7,0.3s-0.6,0.6-0.6,1c0,0.2,0,0.4,0.1,0.5c0.1,0.2,0.2,0.3,0.3,0.4c0.1,0.1,0.3,0.2,0.5,0.3
		S275.9,116.9,276.1,116.9z"/>
	<path stroke="#FFFFFF" stroke-miterlimit="10" d="M284.9,108.7v1.8h2.8v1h-2.8v4c0,0.3,0,0.5,0.1,0.7s0.2,0.3,0.3,0.4
		c0.1,0.1,0.3,0.2,0.4,0.2c0.2,0,0.3,0.1,0.5,0.1c0.1,0,0.3,0,0.4,0c0.1,0,0.3,0,0.4-0.1c0.1,0,0.3,0,0.4-0.1c0.1,0,0.2,0,0.3-0.1
		l0.2,0.9c-0.1,0.1-0.2,0.1-0.4,0.2c-0.2,0-0.3,0.1-0.5,0.1c-0.2,0-0.4,0.1-0.6,0.1c-0.2,0-0.4,0-0.6,0c-0.3,0-0.6,0-0.9-0.1
		c-0.3-0.1-0.5-0.2-0.7-0.4c-0.2-0.2-0.4-0.5-0.5-0.8c-0.1-0.3-0.2-0.7-0.2-1.2v-4h-1.9v-1h1.9v-1.8H284.9z"/>
	<path stroke="#FFFFFF" stroke-miterlimit="10" d="M290.5,110.5h3.8v6.3h2.4v1.1h-6.2v-1.1h2.5v-5.2h-2.5V110.5z M292.8,108.5
		c0-0.2,0.1-0.4,0.2-0.5c0.1-0.1,0.3-0.2,0.6-0.2c0.3,0,0.4,0.1,0.6,0.2c0.1,0.1,0.2,0.3,0.2,0.5c0,0.2-0.1,0.4-0.2,0.5
		s-0.3,0.2-0.6,0.2c-0.3,0-0.4-0.1-0.6-0.2C292.9,108.9,292.8,108.7,292.8,108.5z"/>
	<path stroke="#FFFFFF" stroke-miterlimit="10" d="M298.3,114.1c0-0.5,0.1-1,0.2-1.5c0.2-0.5,0.4-0.9,0.7-1.2
		c0.3-0.3,0.6-0.6,1.1-0.8c0.4-0.2,0.9-0.3,1.4-0.3c0.5,0,1,0.1,1.4,0.3c0.4,0.2,0.8,0.5,1.1,0.8c0.3,0.3,0.5,0.7,0.7,1.2
		c0.2,0.5,0.2,1,0.2,1.5v0.2c0,0.5-0.1,1-0.2,1.5s-0.4,0.9-0.7,1.2c-0.3,0.3-0.6,0.6-1.1,0.8s-0.9,0.3-1.4,0.3c-0.5,0-1-0.1-1.4-0.3
		c-0.4-0.2-0.8-0.5-1.1-0.8c-0.3-0.3-0.5-0.7-0.7-1.2s-0.2-1-0.2-1.5V114.1z M299.6,114.2c0,0.4,0,0.7,0.1,1
		c0.1,0.3,0.2,0.6,0.4,0.9c0.2,0.3,0.4,0.4,0.7,0.6s0.6,0.2,0.9,0.2c0.3,0,0.7-0.1,0.9-0.2c0.3-0.1,0.5-0.3,0.7-0.6
		c0.2-0.3,0.3-0.5,0.4-0.9c0.1-0.3,0.1-0.7,0.1-1v-0.2c0-0.4,0-0.7-0.1-1c-0.1-0.3-0.2-0.6-0.4-0.9c-0.2-0.3-0.4-0.5-0.7-0.6
		c-0.3-0.1-0.6-0.2-0.9-0.2s-0.7,0.1-0.9,0.2c-0.3,0.1-0.5,0.3-0.7,0.6c-0.2,0.3-0.3,0.5-0.4,0.9c-0.1,0.3-0.1,0.7-0.1,1V114.2z"/>
	<path stroke="#FFFFFF" stroke-miterlimit="10" d="M308.2,110.5l0.1,1.1c0.3-0.4,0.6-0.7,1-0.9c0.4-0.2,0.8-0.3,1.3-0.3
		c0.4,0,0.7,0.1,1.1,0.2c0.3,0.1,0.6,0.3,0.8,0.5s0.4,0.5,0.5,0.9c0.1,0.4,0.2,0.8,0.2,1.3v4.7h-1.3v-4.7c0-0.3,0-0.6-0.1-0.8
		s-0.2-0.4-0.3-0.6c-0.1-0.1-0.3-0.2-0.5-0.3c-0.2-0.1-0.4-0.1-0.7-0.1c-0.4,0-0.8,0.1-1.1,0.3c-0.3,0.2-0.6,0.5-0.8,0.8v5.3h-1.3
		v-7.4H308.2z"/>
</g>
<g>
	<g>
		<path fill="#2A343F" d="M9.3,13.4H7.8v3.7H5.9v-10h3.3c0.6,0,1.1,0.1,1.5,0.2s0.8,0.3,1.1,0.6s0.6,0.6,0.7,0.9s0.3,0.8,0.3,1.3
			c0,0.4,0,0.7-0.1,1s-0.2,0.5-0.4,0.8s-0.3,0.4-0.6,0.6s-0.5,0.3-0.7,0.4l2.1,4.1v0.1h-2.1L9.3,13.4z M7.8,11.9h1.4
			c0.5,0,1-0.1,1.3-0.4s0.4-0.7,0.4-1.1c0-0.5-0.1-0.9-0.4-1.2S9.8,8.7,9.2,8.7H7.8V11.9z"/>
		<path fill="#2A343F" d="M18,17.3c-0.6,0-1.1-0.1-1.6-0.3s-0.9-0.4-1.2-0.8s-0.6-0.7-0.8-1.1s-0.3-0.9-0.3-1.4v-0.3
			c0-0.6,0.1-1.1,0.3-1.5s0.4-0.9,0.7-1.2s0.7-0.6,1.1-0.8s0.9-0.3,1.4-0.3c0.5,0,1,0.1,1.4,0.3s0.8,0.4,1.1,0.7s0.5,0.7,0.7,1.2
			s0.2,0.9,0.2,1.5V14h-5c0,0.3,0.1,0.5,0.2,0.7s0.3,0.4,0.4,0.5s0.4,0.3,0.6,0.3s0.5,0.1,0.7,0.1c0.2,0,0.4,0,0.6-0.1
			s0.4-0.1,0.5-0.2s0.3-0.2,0.5-0.3s0.3-0.2,0.4-0.4l1,1c-0.1,0.2-0.3,0.3-0.5,0.5s-0.4,0.3-0.7,0.4s-0.5,0.2-0.9,0.3
			S18.3,17.3,18,17.3z M17.7,11.1c-0.2,0-0.4,0-0.6,0.1s-0.3,0.2-0.5,0.3s-0.2,0.3-0.3,0.5s-0.2,0.4-0.2,0.7h3.1v-0.2
			c0-0.2,0-0.4-0.1-0.6s-0.2-0.3-0.3-0.5s-0.3-0.2-0.5-0.3S18,11.1,17.7,11.1z"/>
		<path fill="#2A343F" d="M23.2,6.6h4.1v9h2.1v1.5h-6.3v-1.5h2.2V8.2h-2.2V6.6z"/>
		<path fill="#2A343F" d="M35.8,17.1c0-0.1-0.1-0.2-0.1-0.3s-0.1-0.2-0.1-0.4c-0.1,0.1-0.2,0.2-0.4,0.3S34.9,17,34.8,17
			s-0.3,0.1-0.6,0.2s-0.4,0.1-0.6,0.1c-0.4,0-0.7-0.1-1-0.2s-0.6-0.3-0.8-0.5s-0.4-0.4-0.5-0.7S31,15.4,31,15.1
			c0-0.8,0.3-1.4,0.9-1.8s1.4-0.6,2.6-0.6h1.1v-0.4c0-0.4-0.1-0.6-0.3-0.8s-0.6-0.3-1-0.3c-0.4,0-0.7,0.1-0.8,0.2s-0.3,0.4-0.3,0.7
			h-1.9c0-0.3,0.1-0.6,0.2-0.9s0.3-0.5,0.6-0.7s0.6-0.4,1-0.5s0.8-0.2,1.3-0.2c0.4,0,0.9,0.1,1.2,0.2s0.7,0.3,1,0.5s0.5,0.5,0.7,0.8
			s0.2,0.7,0.2,1.1v3.2c0,0.4,0,0.7,0.1,1s0.1,0.5,0.2,0.7v0.1H35.8z M34,15.8c0.2,0,0.4,0,0.5-0.1s0.3-0.1,0.4-0.2s0.2-0.2,0.3-0.2
			s0.2-0.2,0.2-0.3v-1.3h-1c-0.3,0-0.5,0-0.8,0.1s-0.4,0.1-0.5,0.2s-0.2,0.2-0.3,0.4s-0.1,0.3-0.1,0.5c0,0.3,0.1,0.5,0.3,0.6
			S33.6,15.8,34,15.8z"/>
		<path fill="#2A343F" d="M43.1,7.9v1.8h2.8v1.4h-2.8v3.2c0,0.3,0,0.5,0.1,0.7s0.1,0.3,0.3,0.4s0.3,0.2,0.4,0.2s0.3,0.1,0.5,0.1
			c0.1,0,0.3,0,0.4,0s0.3,0,0.4-0.1s0.3,0,0.4-0.1s0.2,0,0.3-0.1l0.2,1.3C46,16.9,45.9,17,45.7,17s-0.4,0.1-0.6,0.1
			s-0.4,0.1-0.6,0.1s-0.4,0-0.6,0c-0.4,0-0.8-0.1-1.1-0.2s-0.6-0.3-0.8-0.5s-0.4-0.5-0.5-0.9s-0.2-0.8-0.2-1.3v-3.4h-1.7V9.7h1.7
			V7.9H43.1z"/>
		<path fill="#2A343F" d="M48.5,9.7h4v5.9h2v1.5h-6v-1.5h2.1v-4.3h-2.1V9.7z M50.4,7.8c0-0.1,0-0.3,0.1-0.4s0.1-0.2,0.2-0.3
			S51,7,51.1,6.9s0.3-0.1,0.4-0.1c0.3,0,0.6,0.1,0.8,0.3s0.3,0.4,0.3,0.7s-0.1,0.5-0.3,0.7s-0.5,0.3-0.8,0.3c-0.2,0-0.3,0-0.4-0.1
			s-0.2-0.1-0.3-0.2s-0.2-0.2-0.2-0.3S50.4,8,50.4,7.8z"/>
		<path fill="#2A343F" d="M56.1,13.4c0-0.5,0.1-1,0.2-1.5s0.4-0.9,0.7-1.2s0.7-0.6,1.1-0.8s0.9-0.3,1.5-0.3s1.1,0.1,1.5,0.3
			s0.8,0.5,1.1,0.8s0.5,0.7,0.7,1.2s0.2,1,0.2,1.5v0.1c0,0.5-0.1,1-0.2,1.5s-0.4,0.9-0.7,1.2s-0.7,0.6-1.1,0.8s-0.9,0.3-1.5,0.3
			c-0.6,0-1.1-0.1-1.5-0.3s-0.8-0.5-1.1-0.8s-0.5-0.7-0.7-1.2s-0.2-1-0.2-1.5V13.4z M58,13.5c0,0.3,0,0.6,0.1,0.9s0.2,0.5,0.3,0.7
			s0.3,0.4,0.5,0.5s0.4,0.2,0.7,0.2c0.3,0,0.5-0.1,0.7-0.2s0.4-0.3,0.5-0.5s0.2-0.4,0.3-0.7s0.1-0.6,0.1-0.9v-0.1
			c0-0.3,0-0.6-0.1-0.9s-0.2-0.5-0.3-0.7s-0.3-0.4-0.5-0.5s-0.4-0.2-0.7-0.2c-0.3,0-0.5,0.1-0.7,0.2s-0.4,0.3-0.5,0.5
			s-0.2,0.4-0.3,0.7S58,13.1,58,13.4V13.5z"/>
		<path fill="#2A343F" d="M66.5,9.7l0.1,1c0.3-0.4,0.6-0.7,1-0.9s0.8-0.3,1.3-0.3c0.4,0,0.7,0.1,1,0.2s0.6,0.3,0.8,0.5
			s0.4,0.5,0.5,0.9s0.2,0.8,0.2,1.4v4.6h-1.9v-4.5c0-0.3,0-0.5-0.1-0.7s-0.2-0.3-0.3-0.4s-0.3-0.2-0.4-0.2s-0.4-0.1-0.6-0.1
			c-0.3,0-0.6,0.1-0.8,0.2s-0.4,0.3-0.6,0.5v5.3h-1.9V9.7H66.5z"/>
		<path fill="#2A343F" d="M77.9,15.1c0-0.1,0-0.2-0.1-0.3s-0.1-0.2-0.3-0.2s-0.3-0.1-0.5-0.2s-0.5-0.1-0.8-0.2
			c-0.4-0.1-0.8-0.2-1.2-0.3s-0.7-0.3-0.9-0.5s-0.5-0.4-0.6-0.6s-0.2-0.5-0.2-0.8c0-0.3,0.1-0.6,0.2-0.9s0.4-0.5,0.6-0.7
			s0.6-0.4,1-0.5s0.8-0.2,1.3-0.2c0.5,0,1,0.1,1.4,0.2s0.8,0.3,1,0.5s0.5,0.5,0.7,0.8s0.2,0.6,0.2,1h-1.9c0-0.3-0.1-0.5-0.3-0.7
			S76.9,11,76.5,11c-0.4,0-0.8,0.1-1,0.2s-0.3,0.4-0.3,0.6c0,0.1,0,0.2,0.1,0.3s0.1,0.2,0.2,0.3s0.3,0.1,0.5,0.2s0.5,0.1,0.8,0.2
			c0.4,0.1,0.9,0.2,1.2,0.3s0.7,0.3,1,0.4s0.5,0.4,0.7,0.7s0.2,0.6,0.2,0.9c0,0.3-0.1,0.6-0.2,0.9s-0.4,0.5-0.7,0.7s-0.6,0.4-1,0.5
			s-0.9,0.2-1.4,0.2c-0.6,0-1-0.1-1.5-0.2s-0.8-0.3-1.1-0.6s-0.5-0.5-0.7-0.8S73,15.1,73,14.8h1.8c0,0.2,0.1,0.4,0.2,0.5
			s0.2,0.3,0.4,0.3s0.3,0.2,0.5,0.2s0.4,0.1,0.6,0.1c0.5,0,0.8-0.1,1.1-0.2S77.9,15.3,77.9,15.1z"/>
		<path fill="#2A343F" d="M83.5,10.8c0.2-0.4,0.5-0.6,0.9-0.8s0.7-0.3,1.2-0.3c0.4,0,0.7,0.1,1.1,0.2s0.6,0.3,0.8,0.5
			s0.4,0.6,0.5,0.9s0.2,0.8,0.2,1.4v4.5h-1.9v-4.5c0-0.3,0-0.5-0.1-0.7s-0.2-0.3-0.3-0.5s-0.3-0.2-0.4-0.3s-0.4-0.1-0.6-0.1
			c-0.3,0-0.6,0.1-0.8,0.2s-0.4,0.3-0.6,0.5v5.3h-1.9V6.6h1.9V10.8z"/>
		<path fill="#2A343F" d="M90.5,9.7h4v5.9h2v1.5h-6v-1.5h2.1v-4.3h-2.1V9.7z M92.5,7.8c0-0.1,0-0.3,0.1-0.4s0.1-0.2,0.2-0.3
			S93,7,93.1,6.9s0.3-0.1,0.4-0.1c0.3,0,0.6,0.1,0.8,0.3s0.3,0.4,0.3,0.7s-0.1,0.5-0.3,0.7s-0.5,0.3-0.8,0.3c-0.2,0-0.3,0-0.4-0.1
			s-0.2-0.1-0.3-0.2s-0.2-0.2-0.2-0.3S92.5,8,92.5,7.8z"/>
		<path fill="#2A343F" d="M105,13.5c0,0.5-0.1,1-0.2,1.5s-0.3,0.9-0.6,1.2s-0.5,0.6-0.9,0.8s-0.8,0.3-1.2,0.3c-0.4,0-0.7-0.1-1-0.2
			s-0.6-0.3-0.8-0.6V20h-1.9V9.7h1.8l0.1,0.7c0.2-0.3,0.5-0.5,0.8-0.6s0.7-0.2,1.1-0.2c0.5,0,0.9,0.1,1.2,0.3s0.7,0.4,0.9,0.8
			s0.4,0.7,0.6,1.2s0.2,1,0.2,1.5V13.5z M103.1,13.4c0-0.3,0-0.6-0.1-0.9s-0.1-0.5-0.3-0.7s-0.3-0.4-0.5-0.5s-0.4-0.2-0.7-0.2
			c-0.3,0-0.6,0.1-0.8,0.2s-0.4,0.3-0.5,0.6V15c0.1,0.2,0.3,0.4,0.5,0.6s0.5,0.2,0.8,0.2c0.3,0,0.5-0.1,0.7-0.2s0.3-0.3,0.5-0.5
			s0.2-0.4,0.3-0.7s0.1-0.6,0.1-0.9V13.4z"/>
		<path fill="#2A343F" d="M122.4,8.7h-3.1v8.4h-1.9V8.7h-3V7.2h8V8.7z"/>
		<path fill="#2A343F" d="M126.7,14l0.2,0.8l2-5.1h2.1l-3.8,8.5c-0.1,0.2-0.2,0.4-0.3,0.6s-0.3,0.4-0.5,0.6s-0.4,0.3-0.7,0.5
			s-0.6,0.2-1,0.2c-0.1,0-0.2,0-0.3,0s-0.2,0-0.2,0s-0.1,0-0.2,0s-0.1,0-0.2-0.1l0.2-1.4c0.1,0,0.2,0,0.3,0s0.2,0,0.3,0
			c0.2,0,0.3,0,0.4-0.1s0.2-0.2,0.3-0.3s0.1-0.2,0.2-0.3s0.1-0.1,0.1-0.1l0.5-0.9L123,9.7h2.1L126.7,14z"/>
		<path fill="#2A343F" d="M138.6,13.5c0,0.5-0.1,1-0.2,1.5s-0.3,0.9-0.6,1.2s-0.5,0.6-0.9,0.8s-0.8,0.3-1.2,0.3
			c-0.4,0-0.7-0.1-1-0.2s-0.6-0.3-0.8-0.6V20H132V9.7h1.8l0.1,0.7c0.2-0.3,0.5-0.5,0.8-0.6s0.7-0.2,1.1-0.2c0.5,0,0.9,0.1,1.2,0.3
			s0.7,0.4,0.9,0.8s0.4,0.7,0.6,1.2s0.2,1,0.2,1.5V13.5z M136.7,13.4c0-0.3,0-0.6-0.1-0.9s-0.1-0.5-0.3-0.7s-0.3-0.4-0.5-0.5
			s-0.4-0.2-0.7-0.2c-0.3,0-0.6,0.1-0.8,0.2s-0.4,0.3-0.5,0.6V15c0.1,0.2,0.3,0.4,0.5,0.6s0.5,0.2,0.8,0.2c0.3,0,0.5-0.1,0.7-0.2
			s0.3-0.3,0.5-0.5s0.2-0.4,0.3-0.7s0.1-0.6,0.1-0.9V13.4z"/>
		<path fill="#2A343F" d="M144,17.3c-0.6,0-1.1-0.1-1.6-0.3s-0.9-0.4-1.2-0.8s-0.6-0.7-0.8-1.1s-0.3-0.9-0.3-1.4v-0.3
			c0-0.6,0.1-1.1,0.3-1.5s0.4-0.9,0.7-1.2s0.7-0.6,1.1-0.8s0.9-0.3,1.4-0.3c0.5,0,1,0.1,1.4,0.3s0.8,0.4,1.1,0.7s0.5,0.7,0.7,1.2
			s0.2,0.9,0.2,1.5V14h-5c0,0.3,0.1,0.5,0.2,0.7s0.3,0.4,0.4,0.5s0.4,0.3,0.6,0.3s0.5,0.1,0.7,0.1c0.2,0,0.4,0,0.6-0.1
			s0.4-0.1,0.5-0.2s0.3-0.2,0.5-0.3s0.3-0.2,0.4-0.4l1,1c-0.1,0.2-0.3,0.3-0.5,0.5s-0.4,0.3-0.7,0.4s-0.5,0.2-0.9,0.3
			S144.3,17.3,144,17.3z M143.7,11.1c-0.2,0-0.4,0-0.6,0.1s-0.3,0.2-0.5,0.3s-0.2,0.3-0.3,0.5s-0.2,0.4-0.2,0.7h3.1v-0.2
			c0-0.2,0-0.4-0.1-0.6s-0.2-0.3-0.3-0.5s-0.3-0.2-0.5-0.3S144,11.1,143.7,11.1z"/>
		<path fill="#2A343F" d="M153.6,15.1c0-0.1,0-0.2-0.1-0.3s-0.1-0.2-0.3-0.2s-0.3-0.1-0.5-0.2s-0.5-0.1-0.8-0.2
			c-0.4-0.1-0.8-0.2-1.2-0.3s-0.7-0.3-0.9-0.5s-0.5-0.4-0.6-0.6s-0.2-0.5-0.2-0.8c0-0.3,0.1-0.6,0.2-0.9s0.4-0.5,0.6-0.7
			s0.6-0.4,1-0.5s0.8-0.2,1.3-0.2c0.5,0,1,0.1,1.4,0.2s0.8,0.3,1,0.5s0.5,0.5,0.7,0.8s0.2,0.6,0.2,1h-1.9c0-0.3-0.1-0.5-0.3-0.7
			s-0.6-0.3-1.1-0.3c-0.4,0-0.8,0.1-1,0.2s-0.3,0.4-0.3,0.6c0,0.1,0,0.2,0.1,0.3s0.1,0.2,0.2,0.3s0.3,0.1,0.5,0.2s0.5,0.1,0.8,0.2
			c0.4,0.1,0.9,0.2,1.2,0.3s0.7,0.3,1,0.4s0.5,0.4,0.7,0.7s0.2,0.6,0.2,0.9c0,0.3-0.1,0.6-0.2,0.9s-0.4,0.5-0.7,0.7s-0.6,0.4-1,0.5
			s-0.9,0.2-1.4,0.2c-0.6,0-1-0.1-1.5-0.2s-0.8-0.3-1.1-0.6s-0.5-0.5-0.7-0.8s-0.2-0.6-0.2-0.9h1.8c0,0.2,0.1,0.4,0.2,0.5
			s0.2,0.3,0.4,0.3s0.3,0.2,0.5,0.2s0.4,0.1,0.6,0.1c0.5,0,0.8-0.1,1.1-0.2S153.6,15.3,153.6,15.1z"/>
		<path fill="#2A343F" d="M7.4,28c0-0.7,0.1-1.3,0.2-1.8s0.2-1.1,0.4-1.6s0.4-0.9,0.6-1.3s0.5-0.8,0.7-1.1s0.5-0.6,0.7-0.8
			s0.5-0.4,0.7-0.5l0.3,0.8c-0.3,0.2-0.6,0.5-0.8,0.9s-0.5,0.8-0.8,1.3S9.1,25,8.9,25.7S8.7,27.2,8.7,28v0.1c0,0.9,0.1,1.6,0.2,2.3
			s0.3,1.3,0.5,1.8s0.5,1,0.8,1.4s0.6,0.7,0.8,0.9l-0.3,0.8c-0.2-0.1-0.5-0.3-0.7-0.5s-0.5-0.5-0.8-0.8s-0.5-0.7-0.7-1.1
			S8.2,32,8,31.5s-0.3-1-0.4-1.6S7.4,28.7,7.4,28L7.4,28z"/>
		<path fill="#2A343F" d="M21.3,23.2h-3.1v8.9H17v-8.9h-3.1v-1.1h7.4V23.2z"/>
		<path fill="#2A343F" d="M24.3,25.8c0.3-0.4,0.6-0.7,1-0.9s0.8-0.3,1.3-0.3c0.4,0,0.7,0.1,1.1,0.2s0.6,0.3,0.8,0.5s0.4,0.5,0.5,0.9
			s0.2,0.8,0.2,1.3v4.7h-1.3v-4.7c0-0.6-0.1-1.1-0.4-1.4s-0.7-0.4-1.2-0.4c-0.4,0-0.8,0.1-1.1,0.3s-0.6,0.5-0.8,0.8v5.4H23V21.6h1.3
			V25.8z"/>
		<path fill="#2A343F" d="M31.6,24.7h3.8V31h2.4v1.1h-6.2V31h2.5v-5.2h-2.5V24.7z M33.9,22.7c0-0.2,0.1-0.4,0.2-0.5s0.3-0.2,0.6-0.2
			c0.3,0,0.4,0.1,0.6,0.2s0.2,0.3,0.2,0.5c0,0.2-0.1,0.4-0.2,0.5s-0.3,0.2-0.6,0.2c-0.3,0-0.4-0.1-0.6-0.2S33.9,22.9,33.9,22.7z"/>
		<path fill="#2A343F" d="M42.9,31.2c0.2,0,0.5,0,0.7-0.1s0.4-0.2,0.6-0.3s0.3-0.3,0.4-0.5s0.2-0.4,0.2-0.6H46
			c0,0.3-0.1,0.6-0.3,0.9s-0.4,0.6-0.7,0.8s-0.6,0.4-1,0.5s-0.7,0.2-1.1,0.2c-0.6,0-1.1-0.1-1.5-0.3s-0.8-0.5-1-0.8
			s-0.5-0.7-0.6-1.2s-0.2-0.9-0.2-1.4v-0.3c0-0.5,0.1-1,0.2-1.4s0.4-0.8,0.6-1.2s0.6-0.6,1-0.8s0.9-0.3,1.5-0.3
			c0.4,0,0.8,0.1,1.2,0.2s0.7,0.3,1,0.6s0.5,0.5,0.6,0.9s0.2,0.7,0.2,1.1h-1.2c0-0.2-0.1-0.4-0.1-0.6s-0.2-0.4-0.4-0.5
			s-0.3-0.3-0.6-0.4s-0.5-0.1-0.7-0.1c-0.4,0-0.7,0.1-1,0.2s-0.5,0.4-0.6,0.6S41,27,41,27.3s-0.1,0.6-0.1,1v0.3c0,0.3,0,0.6,0.1,1
			s0.2,0.6,0.3,0.9s0.4,0.5,0.6,0.6S42.6,31.2,42.9,31.2z"/>
		<path fill="#2A343F" d="M50.4,28.6l-0.9,0.9v2.6h-1.3V21.6h1.3V28l0.8-0.9l2.4-2.4h1.5l-3,3.1l3.5,4.3h-1.6L50.4,28.6z"/>
		<path fill="#2A343F" d="M59.9,32.2c-0.5,0-1-0.1-1.4-0.3s-0.8-0.4-1.1-0.7s-0.6-0.7-0.7-1.1s-0.3-0.9-0.3-1.4v-0.3
			c0-0.6,0.1-1.1,0.3-1.6s0.4-0.9,0.8-1.2s0.7-0.6,1.1-0.7s0.8-0.3,1.2-0.3c0.5,0,1,0.1,1.4,0.3s0.7,0.4,1,0.8s0.5,0.7,0.6,1.2
			s0.2,0.9,0.2,1.4v0.6h-5.3c0,0.3,0.1,0.7,0.2,1s0.3,0.6,0.5,0.8s0.4,0.4,0.7,0.5s0.6,0.2,0.9,0.2c0.5,0,0.9-0.1,1.2-0.3
			s0.6-0.4,0.9-0.7l0.8,0.6c-0.1,0.2-0.3,0.4-0.5,0.5s-0.4,0.3-0.6,0.5s-0.5,0.2-0.8,0.3S60.2,32.2,59.9,32.2z M59.7,25.6
			c-0.3,0-0.5,0-0.7,0.1s-0.4,0.2-0.6,0.4s-0.3,0.4-0.5,0.7s-0.2,0.6-0.3,0.9h4v-0.1c0-0.2-0.1-0.5-0.1-0.7s-0.2-0.5-0.4-0.6
			s-0.3-0.3-0.6-0.5S60,25.6,59.7,25.6z"/>
		<path fill="#2A343F" d="M69.8,24.5c0.1,0,0.2,0,0.4,0s0.2,0,0.4,0s0.2,0,0.3,0.1s0.2,0,0.2,0.1L71,25.9c-0.2-0.1-0.5-0.1-0.7-0.1
			s-0.5,0-0.7,0c-0.6,0-1.1,0.1-1.4,0.4s-0.6,0.6-0.8,1.1v4.7h-1.3v-7.4h1.2l0.1,1.2c0.3-0.4,0.7-0.7,1.1-1S69.3,24.5,69.8,24.5z"/>
		<path fill="#2A343F" d="M82,21.6h3.8V31h2.4v1.1H82V31h2.5v-8.3H82V21.6z"/>
		<path fill="#2A343F" d="M90.4,24.7h3.8V31h2.4v1.1h-6.2V31h2.5v-5.2h-2.5V24.7z M92.8,22.7c0-0.2,0.1-0.4,0.2-0.5s0.3-0.2,0.6-0.2
			c0.3,0,0.4,0.1,0.6,0.2s0.2,0.3,0.2,0.5c0,0.2-0.1,0.4-0.2,0.5s-0.3,0.2-0.6,0.2c-0.3,0-0.4-0.1-0.6-0.2S92.8,22.9,92.8,22.7z"/>
		<path fill="#2A343F" d="M99.7,24.7l0.1,1.1c0.3-0.4,0.6-0.7,1-0.9s0.8-0.3,1.3-0.3c0.4,0,0.7,0.1,1.1,0.2s0.6,0.3,0.8,0.5
			s0.4,0.5,0.5,0.9s0.2,0.8,0.2,1.3v4.7h-1.3v-4.7c0-0.3,0-0.6-0.1-0.8s-0.2-0.4-0.3-0.6s-0.3-0.2-0.5-0.3s-0.4-0.1-0.7-0.1
			c-0.4,0-0.8,0.1-1.1,0.3s-0.6,0.5-0.8,0.8v5.3h-1.3v-7.4H99.7z"/>
		<path fill="#2A343F" d="M110.3,32.2c-0.5,0-1-0.1-1.4-0.3s-0.8-0.4-1.1-0.7s-0.6-0.7-0.7-1.1s-0.3-0.9-0.3-1.4v-0.3
			c0-0.6,0.1-1.1,0.3-1.6s0.4-0.9,0.8-1.2s0.7-0.6,1.1-0.7s0.8-0.3,1.2-0.3c0.5,0,1,0.1,1.4,0.3s0.7,0.4,1,0.8s0.5,0.7,0.6,1.2
			s0.2,0.9,0.2,1.4v0.6H108c0,0.3,0.1,0.7,0.2,1s0.3,0.6,0.5,0.8s0.4,0.4,0.7,0.5s0.6,0.2,0.9,0.2c0.5,0,0.9-0.1,1.2-0.3
			s0.6-0.4,0.9-0.7l0.8,0.6c-0.1,0.2-0.3,0.4-0.5,0.5s-0.4,0.3-0.6,0.5s-0.5,0.2-0.8,0.3S110.6,32.2,110.3,32.2z M110.1,25.6
			c-0.3,0-0.5,0-0.7,0.1s-0.4,0.2-0.6,0.4s-0.3,0.4-0.5,0.7s-0.2,0.6-0.3,0.9h4v-0.1c0-0.2-0.1-0.5-0.1-0.7s-0.2-0.5-0.4-0.6
			s-0.3-0.3-0.6-0.5S110.4,25.6,110.1,25.6z"/>
		<path fill="#2A343F" d="M129.9,26.7h-6.1v-1.1h6.1V26.7z M129.9,29.6h-6.1v-1.1h6.1V29.6z"/>
		<path fill="#2A343F" d="M143.6,22.9v1.8h2.8v1h-2.8v4c0,0.3,0,0.5,0.1,0.7s0.2,0.3,0.3,0.4s0.3,0.2,0.4,0.2s0.3,0.1,0.5,0.1
			c0.1,0,0.3,0,0.4,0s0.3,0,0.4-0.1s0.3,0,0.4-0.1s0.2,0,0.3-0.1l0.2,0.9c-0.1,0.1-0.2,0.1-0.4,0.2s-0.3,0.1-0.5,0.1
			s-0.4,0.1-0.6,0.1s-0.4,0-0.6,0c-0.3,0-0.6,0-0.9-0.1s-0.5-0.2-0.7-0.4s-0.4-0.5-0.5-0.8s-0.2-0.7-0.2-1.2v-4h-1.9v-1h1.9v-1.8
			H143.6z"/>
		<path fill="#2A343F" d="M148.7,28.3c0-0.5,0.1-1,0.2-1.5s0.4-0.9,0.7-1.2s0.6-0.6,1.1-0.8s0.9-0.3,1.4-0.3c0.5,0,1,0.1,1.4,0.3
			s0.8,0.5,1.1,0.8s0.5,0.7,0.7,1.2s0.2,1,0.2,1.5v0.2c0,0.5-0.1,1-0.2,1.5s-0.4,0.9-0.7,1.2s-0.6,0.6-1.1,0.8s-0.9,0.3-1.4,0.3
			c-0.5,0-1-0.1-1.4-0.3s-0.8-0.5-1.1-0.8s-0.5-0.7-0.7-1.2s-0.2-1-0.2-1.5V28.3z M149.9,28.4c0,0.4,0,0.7,0.1,1s0.2,0.6,0.4,0.9
			s0.4,0.4,0.7,0.6s0.6,0.2,0.9,0.2c0.3,0,0.7-0.1,0.9-0.2s0.5-0.3,0.7-0.6s0.3-0.5,0.4-0.9s0.1-0.7,0.1-1v-0.2c0-0.4,0-0.7-0.1-1
			s-0.2-0.6-0.4-0.9s-0.4-0.5-0.7-0.6s-0.6-0.2-0.9-0.2s-0.7,0.1-0.9,0.2s-0.5,0.3-0.7,0.6s-0.3,0.5-0.4,0.9s-0.1,0.7-0.1,1V28.4z"
			/>
		<path fill="#2A343F" d="M163.7,28.4c0,0.5-0.1,1-0.2,1.5s-0.3,0.9-0.6,1.2s-0.6,0.6-0.9,0.8s-0.8,0.3-1.2,0.3
			c-0.5,0-0.8-0.1-1.2-0.2s-0.6-0.4-0.9-0.6v3.6h-1.3V24.7h1.2l0.1,0.8c0.2-0.3,0.5-0.5,0.9-0.7s0.8-0.2,1.2-0.2
			c0.5,0,0.9,0.1,1.3,0.3s0.7,0.4,0.9,0.8s0.4,0.7,0.6,1.2s0.2,1,0.2,1.5V28.4z M162.4,28.3c0-0.4,0-0.7-0.1-1s-0.2-0.6-0.4-0.9
			s-0.4-0.4-0.6-0.6s-0.6-0.2-0.9-0.2c-0.4,0-0.7,0.1-1,0.3s-0.5,0.4-0.7,0.7v3.6c0.2,0.3,0.4,0.5,0.7,0.7s0.6,0.3,1,0.3
			c0.4,0,0.7-0.1,0.9-0.2s0.5-0.3,0.6-0.6s0.3-0.5,0.4-0.9s0.1-0.7,0.1-1V28.3z"/>
		<path fill="#2A343F" d="M180.5,28.4c0,0.5-0.1,1-0.2,1.5s-0.3,0.9-0.6,1.2s-0.6,0.6-0.9,0.8s-0.8,0.3-1.2,0.3
			c-0.5,0-0.8-0.1-1.2-0.2s-0.6-0.4-0.9-0.6v3.6h-1.3V24.7h1.2l0.1,0.8c0.2-0.3,0.5-0.5,0.9-0.7s0.8-0.2,1.2-0.2
			c0.5,0,0.9,0.1,1.3,0.3s0.7,0.4,0.9,0.8s0.4,0.7,0.6,1.2s0.2,1,0.2,1.5V28.4z M179.2,28.3c0-0.4,0-0.7-0.1-1s-0.2-0.6-0.4-0.9
			s-0.4-0.4-0.6-0.6s-0.6-0.2-0.9-0.2c-0.4,0-0.7,0.1-1,0.3s-0.5,0.4-0.7,0.7v3.6c0.2,0.3,0.4,0.5,0.7,0.7s0.6,0.3,1,0.3
			c0.4,0,0.7-0.1,0.9-0.2s0.5-0.3,0.6-0.6s0.3-0.5,0.4-0.9s0.1-0.7,0.1-1V28.3z"/>
		<path fill="#2A343F" d="M187.5,32.1c-0.1-0.1-0.1-0.2-0.1-0.4s-0.1-0.3-0.1-0.4c-0.1,0.1-0.3,0.2-0.4,0.4s-0.3,0.2-0.5,0.3
			s-0.4,0.2-0.6,0.2s-0.4,0.1-0.7,0.1c-0.4,0-0.7-0.1-1.1-0.2s-0.6-0.3-0.8-0.5s-0.4-0.4-0.5-0.7s-0.2-0.6-0.2-0.9
			c0-0.4,0.1-0.8,0.2-1.1s0.4-0.6,0.7-0.8s0.7-0.4,1.1-0.5s0.9-0.2,1.4-0.2h1.4V27c0-0.2,0-0.4-0.1-0.6s-0.2-0.3-0.3-0.5
			s-0.3-0.2-0.6-0.3s-0.5-0.1-0.7-0.1c-0.3,0-0.5,0-0.7,0.1s-0.4,0.1-0.5,0.3s-0.2,0.2-0.3,0.4s-0.1,0.3-0.1,0.4h-1.3
			c0-0.3,0.1-0.5,0.2-0.8s0.3-0.5,0.6-0.7s0.6-0.4,0.9-0.5s0.8-0.2,1.2-0.2c0.4,0,0.8,0.1,1.2,0.2s0.7,0.3,0.9,0.5s0.5,0.5,0.6,0.8
			s0.2,0.7,0.2,1.1v3.4c0,0.2,0,0.5,0.1,0.8s0.1,0.5,0.2,0.7v0.1H187.5z M185.2,31.1c0.2,0,0.5,0,0.7-0.1s0.4-0.1,0.6-0.3
			s0.3-0.2,0.5-0.4s0.2-0.3,0.3-0.4v-1.5h-1.2c-0.7,0-1.3,0.1-1.7,0.3s-0.6,0.6-0.6,1c0,0.2,0,0.4,0.1,0.5s0.2,0.3,0.3,0.4
			s0.3,0.2,0.5,0.3S185,31.1,185.2,31.1z"/>
		<path fill="#2A343F" d="M191.2,24.7h3.8V31h2.4v1.1h-6.2V31h2.5v-5.2h-2.5V24.7z M193.6,22.7c0-0.2,0.1-0.4,0.2-0.5
			s0.3-0.2,0.6-0.2c0.3,0,0.4,0.1,0.6,0.2c0.1,0.1,0.2,0.3,0.2,0.5c0,0.2-0.1,0.4-0.2,0.5c-0.1,0.1-0.3,0.2-0.6,0.2
			c-0.3,0-0.4-0.1-0.6-0.2S193.6,22.9,193.6,22.7z"/>
		<path fill="#2A343F" d="M204.3,24.5c0.1,0,0.2,0,0.4,0s0.2,0,0.4,0c0.1,0,0.2,0,0.3,0.1c0.1,0,0.2,0,0.2,0.1l-0.2,1.2
			c-0.2-0.1-0.5-0.1-0.7-0.1c-0.2,0-0.5,0-0.7,0c-0.6,0-1.1,0.1-1.4,0.4c-0.4,0.3-0.6,0.6-0.8,1.1v4.7h-1.3v-7.4h1.2l0.1,1.2
			c0.3-0.4,0.7-0.7,1.1-1C203.3,24.6,203.7,24.5,204.3,24.5z"/>
		<path fill="#2A343F" d="M208,24.7h3.8V31h2.4v1.1H208V31h2.5v-5.2H208V24.7z M210.4,22.7c0-0.2,0.1-0.4,0.2-0.5
			c0.1-0.1,0.3-0.2,0.6-0.2c0.3,0,0.4,0.1,0.6,0.2s0.2,0.3,0.2,0.5c0,0.2-0.1,0.4-0.2,0.5s-0.3,0.2-0.6,0.2c-0.3,0-0.4-0.1-0.6-0.2
			C210.4,23.1,210.4,22.9,210.4,22.7z"/>
		<path fill="#2A343F" d="M217.4,24.7l0.1,1.1c0.3-0.4,0.6-0.7,1-0.9s0.8-0.3,1.3-0.3c0.4,0,0.7,0.1,1.1,0.2
			c0.3,0.1,0.6,0.3,0.8,0.5s0.4,0.5,0.5,0.9c0.1,0.4,0.2,0.8,0.2,1.3v4.7h-1.3v-4.7c0-0.3,0-0.6-0.1-0.8s-0.2-0.4-0.3-0.6
			c-0.1-0.1-0.3-0.2-0.5-0.3c-0.2-0.1-0.4-0.1-0.7-0.1c-0.4,0-0.8,0.1-1.1,0.3c-0.3,0.2-0.6,0.5-0.8,0.8v5.3h-1.3v-7.4H217.4z"/>
		<path fill="#2A343F" d="M224.4,28.3c0-0.6,0.1-1.1,0.2-1.5c0.1-0.5,0.3-0.9,0.6-1.2s0.6-0.6,0.9-0.8s0.8-0.3,1.2-0.3
			c0.5,0,0.9,0.1,1.2,0.2c0.3,0.2,0.6,0.4,0.9,0.7l0.1-0.8h1.1v7.2c0,0.5-0.1,0.9-0.2,1.3c-0.2,0.4-0.4,0.7-0.6,1
			c-0.3,0.3-0.6,0.5-1,0.6S228,35,227.5,35c-0.2,0-0.4,0-0.7-0.1s-0.5-0.1-0.7-0.2c-0.3-0.1-0.5-0.2-0.7-0.4
			c-0.2-0.2-0.4-0.4-0.6-0.6l0.7-0.8c0.2,0.2,0.3,0.3,0.5,0.5s0.3,0.2,0.5,0.3s0.3,0.1,0.5,0.2s0.3,0.1,0.5,0.1c0.3,0,0.6,0,0.8-0.1
			s0.4-0.2,0.6-0.4c0.2-0.2,0.3-0.4,0.4-0.6s0.1-0.5,0.1-0.8v-0.6c-0.2,0.3-0.5,0.5-0.9,0.6c-0.3,0.1-0.7,0.2-1.2,0.2
			c-0.5,0-0.9-0.1-1.2-0.3s-0.7-0.5-0.9-0.8c-0.3-0.3-0.4-0.7-0.6-1.2s-0.2-1-0.2-1.5V28.3z M225.7,28.4c0,0.4,0,0.7,0.1,1
			c0.1,0.3,0.2,0.6,0.4,0.9c0.2,0.2,0.4,0.4,0.6,0.6s0.6,0.2,0.9,0.2c0.2,0,0.4,0,0.6-0.1c0.2-0.1,0.3-0.1,0.5-0.2
			c0.1-0.1,0.3-0.2,0.4-0.3s0.2-0.3,0.3-0.4v-3.4c-0.1-0.2-0.2-0.3-0.3-0.4s-0.2-0.2-0.4-0.3s-0.3-0.2-0.5-0.2s-0.4-0.1-0.6-0.1
			c-0.4,0-0.7,0.1-0.9,0.2c-0.3,0.1-0.5,0.3-0.6,0.6c-0.2,0.2-0.3,0.5-0.4,0.9c-0.1,0.3-0.1,0.7-0.1,1V28.4z"/>
		<path fill="#2A343F" d="M237.6,28.1c0,0.7-0.1,1.3-0.2,1.8c-0.1,0.6-0.2,1.1-0.4,1.6s-0.4,0.9-0.6,1.3c-0.2,0.4-0.5,0.8-0.7,1.1
			c-0.2,0.3-0.5,0.6-0.8,0.8c-0.3,0.2-0.5,0.4-0.7,0.5l-0.3-0.8c0.3-0.2,0.6-0.5,0.8-0.9c0.3-0.4,0.5-0.8,0.8-1.4
			c0.2-0.5,0.4-1.1,0.5-1.8c0.1-0.7,0.2-1.5,0.2-2.3V28c0-0.9-0.1-1.6-0.2-2.3s-0.3-1.3-0.6-1.8c-0.2-0.5-0.5-1-0.8-1.4
			c-0.3-0.4-0.5-0.7-0.8-0.9l0.3-0.8c0.2,0.1,0.5,0.3,0.7,0.5c0.3,0.2,0.5,0.5,0.8,0.8c0.2,0.3,0.5,0.7,0.7,1.1
			c0.2,0.4,0.4,0.9,0.6,1.3s0.3,1,0.4,1.6C237.6,26.8,237.6,27.4,237.6,28.1L237.6,28.1z"/>
	</g>
</g>
<g>
	<path d="M11.7,53.8H7.6v4.4H6.3v-10h6.1v1.1H7.6v3.4h4.1V53.8z"/>
	<path d="M17.9,58.4c-0.5,0-1-0.1-1.4-0.3s-0.8-0.4-1.1-0.7s-0.6-0.7-0.7-1.1s-0.3-0.9-0.3-1.4v-0.3c0-0.6,0.1-1.1,0.3-1.6
		c0.2-0.5,0.4-0.9,0.8-1.2c0.3-0.3,0.7-0.6,1.1-0.7s0.8-0.3,1.2-0.3c0.5,0,1,0.1,1.4,0.3c0.4,0.2,0.7,0.4,1,0.8
		c0.3,0.3,0.5,0.7,0.6,1.2s0.2,0.9,0.2,1.4v0.6h-5.3c0,0.3,0.1,0.7,0.2,1s0.3,0.6,0.5,0.8c0.2,0.2,0.4,0.4,0.7,0.5s0.6,0.2,0.9,0.2
		c0.5,0,0.9-0.1,1.2-0.3s0.6-0.4,0.9-0.7l0.8,0.6c-0.1,0.2-0.3,0.4-0.5,0.5c-0.2,0.2-0.4,0.3-0.6,0.5s-0.5,0.2-0.8,0.3
		C18.6,58.3,18.2,58.4,17.9,58.4z M17.7,51.7c-0.3,0-0.5,0-0.7,0.1c-0.2,0.1-0.4,0.2-0.6,0.4c-0.2,0.2-0.3,0.4-0.5,0.7
		c-0.1,0.3-0.2,0.6-0.3,0.9h4v-0.1c0-0.2-0.1-0.5-0.1-0.7s-0.2-0.5-0.4-0.6s-0.3-0.3-0.6-0.5S18,51.7,17.7,51.7z"/>
	<path d="M23.6,50.8l0,0.7c0.2-0.3,0.3-0.5,0.6-0.6s0.5-0.2,0.9-0.2c0.7,0,1.1,0.3,1.4,0.8c0.1-0.2,0.3-0.4,0.6-0.6
		c0.2-0.1,0.5-0.2,0.9-0.2c0.5,0,1,0.2,1.3,0.5s0.4,0.8,0.4,1.5v5.5h-1.2v-5.5c0-0.6-0.3-0.9-0.9-0.9c-0.2,0-0.3,0-0.4,0.1
		s-0.2,0.1-0.3,0.2c-0.1,0.1-0.1,0.2-0.2,0.2c0,0.1-0.1,0.2-0.1,0.3v5.7h-1.2v-5.5c0-0.3-0.1-0.5-0.2-0.7s-0.3-0.2-0.6-0.2
		c-0.3,0-0.5,0.1-0.6,0.2s-0.3,0.2-0.3,0.4v5.9h-1.2v-7.4H23.6z"/>
	<path d="M36.3,58.2c-0.1-0.1-0.1-0.2-0.1-0.4c0-0.1-0.1-0.3-0.1-0.4c-0.1,0.1-0.3,0.2-0.4,0.4s-0.3,0.2-0.5,0.3s-0.4,0.2-0.6,0.2
		s-0.4,0.1-0.7,0.1c-0.4,0-0.7-0.1-1.1-0.2s-0.6-0.3-0.8-0.5c-0.2-0.2-0.4-0.4-0.5-0.7c-0.1-0.3-0.2-0.6-0.2-0.9
		c0-0.4,0.1-0.8,0.2-1.1s0.4-0.6,0.7-0.8c0.3-0.2,0.7-0.4,1.1-0.5s0.9-0.2,1.4-0.2H36v-0.6c0-0.2,0-0.4-0.1-0.6s-0.2-0.3-0.3-0.5
		c-0.2-0.1-0.3-0.2-0.6-0.3s-0.5-0.1-0.7-0.1c-0.3,0-0.5,0-0.7,0.1s-0.4,0.1-0.5,0.3s-0.2,0.2-0.3,0.4c-0.1,0.1-0.1,0.3-0.1,0.4
		h-1.3c0-0.3,0.1-0.5,0.2-0.8s0.3-0.5,0.6-0.7c0.3-0.2,0.6-0.4,0.9-0.5s0.8-0.2,1.2-0.2c0.4,0,0.8,0.1,1.2,0.2
		c0.4,0.1,0.7,0.3,0.9,0.5c0.3,0.2,0.5,0.5,0.6,0.8s0.2,0.7,0.2,1.1v3.4c0,0.2,0,0.5,0.1,0.8c0,0.3,0.1,0.5,0.2,0.7v0.1H36.3z
		 M34,57.3c0.2,0,0.5,0,0.7-0.1s0.4-0.1,0.6-0.3s0.3-0.2,0.5-0.4c0.1-0.1,0.2-0.3,0.3-0.4v-1.5h-1.2c-0.7,0-1.3,0.1-1.7,0.3
		s-0.6,0.6-0.6,1c0,0.2,0,0.4,0.1,0.5s0.2,0.3,0.3,0.4c0.1,0.1,0.3,0.2,0.5,0.3S33.8,57.3,34,57.3z"/>
	<path d="M40,47.7h3.8v9.4h2.4v1.1H40v-1.1h2.5v-8.3H40V47.7z"/>
	<path d="M51.5,58.4c-0.5,0-1-0.1-1.4-0.3s-0.8-0.4-1.1-0.7s-0.6-0.7-0.7-1.1s-0.3-0.9-0.3-1.4v-0.3c0-0.6,0.1-1.1,0.3-1.6
		c0.2-0.5,0.4-0.9,0.8-1.2c0.3-0.3,0.7-0.6,1.1-0.7s0.8-0.3,1.2-0.3c0.5,0,1,0.1,1.4,0.3c0.4,0.2,0.7,0.4,1,0.8
		c0.3,0.3,0.5,0.7,0.6,1.2s0.2,0.9,0.2,1.4v0.6h-5.3c0,0.3,0.1,0.7,0.2,1s0.3,0.6,0.5,0.8c0.2,0.2,0.4,0.4,0.7,0.5s0.6,0.2,0.9,0.2
		c0.5,0,0.9-0.1,1.2-0.3s0.6-0.4,0.9-0.7l0.8,0.6c-0.1,0.2-0.3,0.4-0.5,0.5c-0.2,0.2-0.4,0.3-0.6,0.5s-0.5,0.2-0.8,0.3
		C52.2,58.3,51.8,58.4,51.5,58.4z M51.3,51.7c-0.3,0-0.5,0-0.7,0.1c-0.2,0.1-0.4,0.2-0.6,0.4c-0.2,0.2-0.3,0.4-0.5,0.7
		c-0.1,0.3-0.2,0.6-0.3,0.9h4v-0.1c0-0.2-0.1-0.5-0.1-0.7s-0.2-0.5-0.4-0.6s-0.3-0.3-0.6-0.5S51.6,51.7,51.3,51.7z"/>
</g>
<g>
	<path d="M7.6,68.2l1.6,5l1.8-5h1.6v10h-1.2v-4l0.1-4.2l-1.8,5.4H8.8l-1.7-5.2l0.1,4v4H6v-10H7.6z"/>
	<path d="M19.5,78.1c-0.1-0.1-0.1-0.2-0.1-0.4c0-0.1-0.1-0.3-0.1-0.4c-0.1,0.1-0.3,0.2-0.4,0.4s-0.3,0.2-0.5,0.3s-0.4,0.2-0.6,0.2
		s-0.4,0.1-0.7,0.1c-0.4,0-0.7-0.1-1.1-0.2s-0.6-0.3-0.8-0.5c-0.2-0.2-0.4-0.4-0.5-0.7c-0.1-0.3-0.2-0.6-0.2-0.9
		c0-0.4,0.1-0.8,0.2-1.1s0.4-0.6,0.7-0.8c0.3-0.2,0.7-0.4,1.1-0.5s0.9-0.2,1.4-0.2h1.4V73c0-0.2,0-0.4-0.1-0.6s-0.2-0.3-0.3-0.5
		c-0.2-0.1-0.3-0.2-0.6-0.3s-0.5-0.1-0.7-0.1c-0.3,0-0.5,0-0.7,0.1s-0.4,0.1-0.5,0.3s-0.2,0.2-0.3,0.4c-0.1,0.1-0.1,0.3-0.1,0.4
		h-1.3c0-0.3,0.1-0.5,0.2-0.8s0.3-0.5,0.6-0.7c0.3-0.2,0.6-0.4,0.9-0.5s0.8-0.2,1.2-0.2c0.4,0,0.8,0.1,1.2,0.2
		c0.4,0.1,0.7,0.3,0.9,0.5c0.3,0.2,0.5,0.5,0.6,0.8s0.2,0.7,0.2,1.1v3.4c0,0.2,0,0.5,0.1,0.8c0,0.3,0.1,0.5,0.2,0.7v0.1H19.5z
		 M17.2,77.1c0.2,0,0.5,0,0.7-0.1s0.4-0.1,0.6-0.3s0.3-0.2,0.5-0.4c0.1-0.1,0.2-0.3,0.3-0.4v-1.5h-1.2c-0.7,0-1.3,0.1-1.7,0.3
		s-0.6,0.6-0.6,1c0,0.2,0,0.4,0.1,0.5s0.2,0.3,0.3,0.4c0.1,0.1,0.3,0.2,0.5,0.3S17,77.1,17.2,77.1z"/>
	<path d="M23.2,67.6H27V77h2.4v1.1h-6.2V77h2.5v-8.3h-2.5V67.6z"/>
	<path d="M34.7,78.2c-0.5,0-1-0.1-1.4-0.3s-0.8-0.4-1.1-0.7s-0.6-0.7-0.7-1.1s-0.3-0.9-0.3-1.4v-0.3c0-0.6,0.1-1.1,0.3-1.6
		c0.2-0.5,0.4-0.9,0.8-1.2c0.3-0.3,0.7-0.6,1.1-0.7s0.8-0.3,1.2-0.3c0.5,0,1,0.1,1.4,0.3c0.4,0.2,0.7,0.4,1,0.8
		c0.3,0.3,0.5,0.7,0.6,1.2s0.2,0.9,0.2,1.4v0.6h-5.3c0,0.3,0.1,0.7,0.2,1s0.3,0.6,0.5,0.8c0.2,0.2,0.4,0.4,0.7,0.5s0.6,0.2,0.9,0.2
		c0.5,0,0.9-0.1,1.2-0.3s0.6-0.4,0.9-0.7l0.8,0.6c-0.1,0.2-0.3,0.4-0.5,0.5c-0.2,0.2-0.4,0.3-0.6,0.5S36,78,35.7,78.1
		C35.4,78.2,35,78.2,34.7,78.2z M34.5,71.6c-0.3,0-0.5,0-0.7,0.1c-0.2,0.1-0.4,0.2-0.6,0.4c-0.2,0.2-0.3,0.4-0.5,0.7
		c-0.1,0.3-0.2,0.6-0.3,0.9h4v-0.1c0-0.2-0.1-0.5-0.1-0.7s-0.2-0.5-0.4-0.6s-0.3-0.3-0.6-0.5S34.8,71.6,34.5,71.6z"/>
</g>
<g>
	<path d="M11.7,93.6H7.6V98H6.3V88h6.1v1.1H7.6v3.4h4.1V93.6z"/>
	<path d="M17.9,98.1c-0.5,0-1-0.1-1.4-0.3s-0.8-0.4-1.1-0.7s-0.6-0.7-0.7-1.1s-0.3-0.9-0.3-1.4v-0.3c0-0.6,0.1-1.1,0.3-1.6
		c0.2-0.5,0.4-0.9,0.8-1.2c0.3-0.3,0.7-0.6,1.1-0.7s0.8-0.3,1.2-0.3c0.5,0,1,0.1,1.4,0.3c0.4,0.2,0.7,0.4,1,0.8
		c0.3,0.3,0.5,0.7,0.6,1.2s0.2,0.9,0.2,1.4v0.6h-5.3c0,0.3,0.1,0.7,0.2,1s0.3,0.6,0.5,0.8c0.2,0.2,0.4,0.4,0.7,0.5s0.6,0.2,0.9,0.2
		c0.5,0,0.9-0.1,1.2-0.3s0.6-0.4,0.9-0.7l0.8,0.6c-0.1,0.2-0.3,0.4-0.5,0.5c-0.2,0.2-0.4,0.3-0.6,0.5s-0.5,0.2-0.8,0.3
		C18.6,98.1,18.2,98.1,17.9,98.1z M17.7,91.5c-0.3,0-0.5,0-0.7,0.1c-0.2,0.1-0.4,0.2-0.6,0.4c-0.2,0.2-0.3,0.4-0.5,0.7
		c-0.1,0.3-0.2,0.6-0.3,0.9h4v-0.1c0-0.2-0.1-0.5-0.1-0.7s-0.2-0.5-0.4-0.6s-0.3-0.3-0.6-0.5S18,91.5,17.7,91.5z"/>
	<path d="M23.6,90.6l0,0.7c0.2-0.3,0.3-0.5,0.6-0.6s0.5-0.2,0.9-0.2c0.7,0,1.1,0.3,1.4,0.8c0.1-0.2,0.3-0.4,0.6-0.6
		c0.2-0.1,0.5-0.2,0.9-0.2c0.5,0,1,0.2,1.3,0.5s0.4,0.8,0.4,1.5V98h-1.2v-5.5c0-0.6-0.3-0.9-0.9-0.9c-0.2,0-0.3,0-0.4,0.1
		s-0.2,0.1-0.3,0.2c-0.1,0.1-0.1,0.2-0.2,0.2c0,0.1-0.1,0.2-0.1,0.3V98h-1.2v-5.5c0-0.3-0.1-0.5-0.2-0.7s-0.3-0.2-0.6-0.2
		c-0.3,0-0.5,0.1-0.6,0.2s-0.3,0.2-0.3,0.4V98h-1.2v-7.4H23.6z"/>
	<path d="M36.3,98c-0.1-0.1-0.1-0.2-0.1-0.4c0-0.1-0.1-0.3-0.1-0.4c-0.1,0.1-0.3,0.2-0.4,0.4s-0.3,0.2-0.5,0.3S34.7,98,34.5,98
		s-0.4,0.1-0.7,0.1c-0.4,0-0.7-0.1-1.1-0.2s-0.6-0.3-0.8-0.5c-0.2-0.2-0.4-0.4-0.5-0.7c-0.1-0.3-0.2-0.6-0.2-0.9
		c0-0.4,0.1-0.8,0.2-1.1s0.4-0.6,0.7-0.8c0.3-0.2,0.7-0.4,1.1-0.5s0.9-0.2,1.4-0.2H36v-0.6c0-0.2,0-0.4-0.1-0.6s-0.2-0.3-0.3-0.5
		c-0.2-0.1-0.3-0.2-0.6-0.3s-0.5-0.1-0.7-0.1c-0.3,0-0.5,0-0.7,0.1s-0.4,0.1-0.5,0.3s-0.2,0.2-0.3,0.4c-0.1,0.1-0.1,0.3-0.1,0.4
		h-1.3c0-0.3,0.1-0.5,0.2-0.8s0.3-0.5,0.6-0.7c0.3-0.2,0.6-0.4,0.9-0.5s0.8-0.2,1.2-0.2c0.4,0,0.8,0.1,1.2,0.2
		c0.4,0.1,0.7,0.3,0.9,0.5c0.3,0.2,0.5,0.5,0.6,0.8s0.2,0.7,0.2,1.1v3.4c0,0.2,0,0.5,0.1,0.8c0,0.3,0.1,0.5,0.2,0.7V98H36.3z M34,97
		c0.2,0,0.5,0,0.7-0.1s0.4-0.1,0.6-0.3s0.3-0.2,0.5-0.4c0.1-0.1,0.2-0.3,0.3-0.4v-1.5h-1.2c-0.7,0-1.3,0.1-1.7,0.3s-0.6,0.6-0.6,1
		c0,0.2,0,0.4,0.1,0.5s0.2,0.3,0.3,0.4c0.1,0.1,0.3,0.2,0.5,0.3S33.8,97,34,97z"/>
	<path d="M40,87.5h3.8v9.4h2.4V98H40v-1.1h2.5v-8.3H40V87.5z"/>
	<path d="M51.5,98.1c-0.5,0-1-0.1-1.4-0.3s-0.8-0.4-1.1-0.7s-0.6-0.7-0.7-1.1s-0.3-0.9-0.3-1.4v-0.3c0-0.6,0.1-1.1,0.3-1.6
		c0.2-0.5,0.4-0.9,0.8-1.2c0.3-0.3,0.7-0.6,1.1-0.7s0.8-0.3,1.2-0.3c0.5,0,1,0.1,1.4,0.3c0.4,0.2,0.7,0.4,1,0.8
		c0.3,0.3,0.5,0.7,0.6,1.2s0.2,0.9,0.2,1.4v0.6h-5.3c0,0.3,0.1,0.7,0.2,1s0.3,0.6,0.5,0.8c0.2,0.2,0.4,0.4,0.7,0.5s0.6,0.2,0.9,0.2
		c0.5,0,0.9-0.1,1.2-0.3s0.6-0.4,0.9-0.7l0.8,0.6c-0.1,0.2-0.3,0.4-0.5,0.5c-0.2,0.2-0.4,0.3-0.6,0.5s-0.5,0.2-0.8,0.3
		C52.2,98.1,51.8,98.1,51.5,98.1z M51.3,91.5c-0.3,0-0.5,0-0.7,0.1c-0.2,0.1-0.4,0.2-0.6,0.4c-0.2,0.2-0.3,0.4-0.5,0.7
		c-0.1,0.3-0.2,0.6-0.3,0.9h4v-0.1c0-0.2-0.1-0.5-0.1-0.7s-0.2-0.5-0.4-0.6s-0.3-0.3-0.6-0.5S51.6,91.5,51.3,91.5z"/>
</g>
<g>
	<path d="M7.6,107.9l1.6,5l1.8-5h1.6v10h-1.2v-4l0.1-4.2l-1.8,5.4H8.8l-1.7-5.2l0.1,4v4H6v-10H7.6z"/>
	<path d="M19.5,117.9c-0.1-0.1-0.1-0.2-0.1-0.4c0-0.1-0.1-0.3-0.1-0.4c-0.1,0.1-0.3,0.2-0.4,0.4s-0.3,0.2-0.5,0.3s-0.4,0.2-0.6,0.2
		S17.3,118,17,118c-0.4,0-0.7-0.1-1.1-0.2s-0.6-0.3-0.8-0.5c-0.2-0.2-0.4-0.4-0.5-0.7c-0.1-0.3-0.2-0.6-0.2-0.9
		c0-0.4,0.1-0.8,0.2-1.1s0.4-0.6,0.7-0.8c0.3-0.2,0.7-0.4,1.1-0.5s0.9-0.2,1.4-0.2h1.4v-0.6c0-0.2,0-0.4-0.1-0.6s-0.2-0.3-0.3-0.5
		c-0.2-0.1-0.3-0.2-0.6-0.3s-0.5-0.1-0.7-0.1c-0.3,0-0.5,0-0.7,0.1s-0.4,0.1-0.5,0.3s-0.2,0.2-0.3,0.4c-0.1,0.1-0.1,0.3-0.1,0.4
		h-1.3c0-0.3,0.1-0.5,0.2-0.8s0.3-0.5,0.6-0.7c0.3-0.2,0.6-0.4,0.9-0.5s0.8-0.2,1.2-0.2c0.4,0,0.8,0.1,1.2,0.2
		c0.4,0.1,0.7,0.3,0.9,0.5c0.3,0.2,0.5,0.5,0.6,0.8s0.2,0.7,0.2,1.1v3.4c0,0.2,0,0.5,0.1,0.8c0,0.3,0.1,0.5,0.2,0.7v0.1H19.5z
		 M17.2,116.9c0.2,0,0.5,0,0.7-0.1s0.4-0.1,0.6-0.3s0.3-0.2,0.5-0.4c0.1-0.1,0.2-0.3,0.3-0.4v-1.5h-1.2c-0.7,0-1.3,0.1-1.7,0.3
		s-0.6,0.6-0.6,1c0,0.2,0,0.4,0.1,0.5s0.2,0.3,0.3,0.4c0.1,0.1,0.3,0.2,0.5,0.3S17,116.9,17.2,116.9z"/>
	<path d="M23.2,107.4H27v9.4h2.4v1.1h-6.2v-1.1h2.5v-8.3h-2.5V107.4z"/>
	<path d="M34.7,118c-0.5,0-1-0.1-1.4-0.3s-0.8-0.4-1.1-0.7s-0.6-0.7-0.7-1.1s-0.3-0.9-0.3-1.4v-0.3c0-0.6,0.1-1.1,0.3-1.6
		c0.2-0.5,0.4-0.9,0.8-1.2c0.3-0.3,0.7-0.6,1.1-0.7s0.8-0.3,1.2-0.3c0.5,0,1,0.1,1.4,0.3c0.4,0.2,0.7,0.4,1,0.8
		c0.3,0.3,0.5,0.7,0.6,1.2s0.2,0.9,0.2,1.4v0.6h-5.3c0,0.3,0.1,0.7,0.2,1s0.3,0.6,0.5,0.8c0.2,0.2,0.4,0.4,0.7,0.5s0.6,0.2,0.9,0.2
		c0.5,0,0.9-0.1,1.2-0.3s0.6-0.4,0.9-0.7l0.8,0.6c-0.1,0.2-0.3,0.4-0.5,0.5c-0.2,0.2-0.4,0.3-0.6,0.5s-0.5,0.2-0.8,0.3
		C35.4,118,35,118,34.7,118z M34.5,111.4c-0.3,0-0.5,0-0.7,0.1c-0.2,0.1-0.4,0.2-0.6,0.4c-0.2,0.2-0.3,0.4-0.5,0.7
		c-0.1,0.3-0.2,0.6-0.3,0.9h4v-0.1c0-0.2-0.1-0.5-0.1-0.7s-0.2-0.5-0.4-0.6s-0.3-0.3-0.6-0.5S34.8,111.4,34.5,111.4z"/>
</g>
<g>
	<path d="M135.3,48.3l1.6,5l1.8-5h1.6v10H139v-4l0.1-4.2l-1.8,5.4h-0.7l-1.7-5.2l0.1,4v4h-1.2v-10H135.3z"/>
	<path d="M147.1,58.2c-0.1-0.1-0.1-0.2-0.1-0.4c0-0.1-0.1-0.3-0.1-0.4c-0.1,0.1-0.3,0.2-0.4,0.4s-0.3,0.2-0.5,0.3s-0.4,0.2-0.6,0.2
		s-0.4,0.1-0.7,0.1c-0.4,0-0.7-0.1-1.1-0.2s-0.6-0.3-0.8-0.5c-0.2-0.2-0.4-0.4-0.5-0.7c-0.1-0.3-0.2-0.6-0.2-0.9
		c0-0.4,0.1-0.8,0.2-1.1s0.4-0.6,0.7-0.8c0.3-0.2,0.7-0.4,1.1-0.5s0.9-0.2,1.4-0.2h1.4v-0.6c0-0.2,0-0.4-0.1-0.6s-0.2-0.3-0.3-0.5
		c-0.2-0.1-0.3-0.2-0.6-0.3s-0.5-0.1-0.7-0.1c-0.3,0-0.5,0-0.7,0.1s-0.4,0.1-0.5,0.3s-0.2,0.2-0.3,0.4c-0.1,0.1-0.1,0.3-0.1,0.4
		h-1.3c0-0.3,0.1-0.5,0.2-0.8s0.3-0.5,0.6-0.7c0.3-0.2,0.6-0.4,0.9-0.5s0.8-0.2,1.2-0.2c0.4,0,0.8,0.1,1.2,0.2
		c0.4,0.1,0.7,0.3,0.9,0.5c0.3,0.2,0.5,0.5,0.6,0.8s0.2,0.7,0.2,1.1v3.4c0,0.2,0,0.5,0.1,0.8c0,0.3,0.1,0.5,0.2,0.7v0.1H147.1z
		 M144.9,57.3c0.2,0,0.5,0,0.7-0.1s0.4-0.1,0.6-0.3s0.3-0.2,0.5-0.4c0.1-0.1,0.2-0.3,0.3-0.4v-1.5h-1.2c-0.7,0-1.3,0.1-1.7,0.3
		s-0.6,0.6-0.6,1c0,0.2,0,0.4,0.1,0.5s0.2,0.3,0.3,0.4c0.1,0.1,0.3,0.2,0.5,0.3S144.7,57.3,144.9,57.3z"/>
	<path d="M150.9,47.7h3.8v9.4h2.4v1.1h-6.2v-1.1h2.5v-8.3h-2.5V47.7z"/>
	<path d="M162.4,58.4c-0.5,0-1-0.1-1.4-0.3s-0.8-0.4-1.1-0.7s-0.6-0.7-0.7-1.1s-0.3-0.9-0.3-1.4v-0.3c0-0.6,0.1-1.1,0.3-1.6
		c0.2-0.5,0.4-0.9,0.8-1.2c0.3-0.3,0.7-0.6,1.1-0.7s0.8-0.3,1.2-0.3c0.5,0,1,0.1,1.4,0.3c0.4,0.2,0.7,0.4,1,0.8
		c0.3,0.3,0.5,0.7,0.6,1.2s0.2,0.9,0.2,1.4v0.6h-5.3c0,0.3,0.1,0.7,0.2,1s0.3,0.6,0.5,0.8c0.2,0.2,0.4,0.4,0.7,0.5s0.6,0.2,0.9,0.2
		c0.5,0,0.9-0.1,1.2-0.3s0.6-0.4,0.9-0.7l0.8,0.6c-0.1,0.2-0.3,0.4-0.5,0.5c-0.2,0.2-0.4,0.3-0.6,0.5s-0.5,0.2-0.8,0.3
		C163,58.3,162.7,58.4,162.4,58.4z M162.2,51.7c-0.3,0-0.5,0-0.7,0.1c-0.2,0.1-0.4,0.2-0.6,0.4c-0.2,0.2-0.3,0.4-0.5,0.7
		c-0.1,0.3-0.2,0.6-0.3,0.9h4v-0.1c0-0.2-0.1-0.5-0.1-0.7s-0.2-0.5-0.4-0.6s-0.3-0.3-0.6-0.5S162.5,51.7,162.2,51.7z"/>
</g>
<g>
	<path d="M139.4,73.7h-4.1v4.4H134v-10h6.1v1.1h-4.8v3.4h4.1V73.7z"/>
	<path d="M145.5,78.2c-0.5,0-1-0.1-1.4-0.3s-0.8-0.4-1.1-0.7s-0.6-0.7-0.7-1.1s-0.3-0.9-0.3-1.4v-0.3c0-0.6,0.1-1.1,0.3-1.6
		c0.2-0.5,0.4-0.9,0.8-1.2c0.3-0.3,0.7-0.6,1.1-0.7s0.8-0.3,1.2-0.3c0.5,0,1,0.1,1.4,0.3c0.4,0.2,0.7,0.4,1,0.8
		c0.3,0.3,0.5,0.7,0.6,1.2s0.2,0.9,0.2,1.4v0.6h-5.3c0,0.3,0.1,0.7,0.2,1s0.3,0.6,0.5,0.8c0.2,0.2,0.4,0.4,0.7,0.5s0.6,0.2,0.9,0.2
		c0.5,0,0.9-0.1,1.2-0.3s0.6-0.4,0.9-0.7l0.8,0.6c-0.1,0.2-0.3,0.4-0.5,0.5c-0.2,0.2-0.4,0.3-0.6,0.5s-0.5,0.2-0.8,0.3
		C146.2,78.2,145.9,78.2,145.5,78.2z M145.4,71.6c-0.3,0-0.5,0-0.7,0.1c-0.2,0.1-0.4,0.2-0.6,0.4c-0.2,0.2-0.3,0.4-0.5,0.7
		c-0.1,0.3-0.2,0.6-0.3,0.9h4v-0.1c0-0.2-0.1-0.5-0.1-0.7s-0.2-0.5-0.4-0.6s-0.3-0.3-0.6-0.5S145.7,71.6,145.4,71.6z"/>
	<path d="M151.3,70.7l0,0.7c0.2-0.3,0.3-0.5,0.6-0.6s0.5-0.2,0.9-0.2c0.7,0,1.1,0.3,1.4,0.8c0.1-0.2,0.3-0.4,0.6-0.6
		c0.2-0.1,0.5-0.2,0.9-0.2c0.5,0,1,0.2,1.3,0.5s0.4,0.8,0.4,1.5v5.5h-1.2v-5.5c0-0.6-0.3-0.9-0.9-0.9c-0.2,0-0.3,0-0.4,0.1
		s-0.2,0.1-0.3,0.2c-0.1,0.1-0.1,0.2-0.2,0.2c0,0.1-0.1,0.2-0.1,0.3v5.7h-1.2v-5.5c0-0.3-0.1-0.5-0.2-0.7s-0.3-0.2-0.6-0.2
		c-0.3,0-0.5,0.1-0.6,0.2s-0.3,0.2-0.3,0.4v5.9h-1.2v-7.4H151.3z"/>
	<path d="M163.9,78.1c-0.1-0.1-0.1-0.2-0.1-0.4c0-0.1-0.1-0.3-0.1-0.4c-0.1,0.1-0.3,0.2-0.4,0.4s-0.3,0.2-0.5,0.3s-0.4,0.2-0.6,0.2
		s-0.4,0.1-0.7,0.1c-0.4,0-0.7-0.1-1.1-0.2s-0.6-0.3-0.8-0.5c-0.2-0.2-0.4-0.4-0.5-0.7c-0.1-0.3-0.2-0.6-0.2-0.9
		c0-0.4,0.1-0.8,0.2-1.1s0.4-0.6,0.7-0.8c0.3-0.2,0.7-0.4,1.1-0.5s0.9-0.2,1.4-0.2h1.4V73c0-0.2,0-0.4-0.1-0.6s-0.2-0.3-0.3-0.5
		c-0.2-0.1-0.3-0.2-0.6-0.3s-0.5-0.1-0.7-0.1c-0.3,0-0.5,0-0.7,0.1s-0.4,0.1-0.5,0.3s-0.2,0.2-0.3,0.4c-0.1,0.1-0.1,0.3-0.1,0.4
		h-1.3c0-0.3,0.1-0.5,0.2-0.8s0.3-0.5,0.6-0.7c0.3-0.2,0.6-0.4,0.9-0.5s0.8-0.2,1.2-0.2c0.4,0,0.8,0.1,1.2,0.2
		c0.4,0.1,0.7,0.3,0.9,0.5c0.3,0.2,0.5,0.5,0.6,0.8s0.2,0.7,0.2,1.1v3.4c0,0.2,0,0.5,0.1,0.8c0,0.3,0.1,0.5,0.2,0.7v0.1H163.9z
		 M161.7,77.1c0.2,0,0.5,0,0.7-0.1s0.4-0.1,0.6-0.3s0.3-0.2,0.5-0.4c0.1-0.1,0.2-0.3,0.3-0.4v-1.5h-1.2c-0.7,0-1.3,0.1-1.7,0.3
		s-0.6,0.6-0.6,1c0,0.2,0,0.4,0.1,0.5s0.2,0.3,0.3,0.4c0.1,0.1,0.3,0.2,0.5,0.3S161.5,77.1,161.7,77.1z"/>
	<path d="M167.7,67.6h3.8V77h2.4v1.1h-6.2V77h2.5v-8.3h-2.5V67.6z"/>
	<path d="M179.2,78.2c-0.5,0-1-0.1-1.4-0.3s-0.8-0.4-1.1-0.7s-0.6-0.7-0.7-1.1s-0.3-0.9-0.3-1.4v-0.3c0-0.6,0.1-1.1,0.3-1.6
		c0.2-0.5,0.4-0.9,0.8-1.2c0.3-0.3,0.7-0.6,1.1-0.7s0.8-0.3,1.2-0.3c0.5,0,1,0.1,1.4,0.3c0.4,0.2,0.7,0.4,1,0.8
		c0.3,0.3,0.5,0.7,0.6,1.2s0.2,0.9,0.2,1.4v0.6h-5.3c0,0.3,0.1,0.7,0.2,1s0.3,0.6,0.5,0.8c0.2,0.2,0.4,0.4,0.7,0.5s0.6,0.2,0.9,0.2
		c0.5,0,0.9-0.1,1.2-0.3s0.6-0.4,0.9-0.7l0.8,0.6c-0.1,0.2-0.3,0.4-0.5,0.5c-0.2,0.2-0.4,0.3-0.6,0.5s-0.5,0.2-0.8,0.3
		C179.8,78.2,179.5,78.2,179.2,78.2z M179,71.6c-0.3,0-0.5,0-0.7,0.1c-0.2,0.1-0.4,0.2-0.6,0.4c-0.2,0.2-0.3,0.4-0.5,0.7
		c-0.1,0.3-0.2,0.6-0.3,0.9h4v-0.1c0-0.2-0.1-0.5-0.1-0.7s-0.2-0.5-0.4-0.6s-0.3-0.3-0.6-0.5S179.3,71.6,179,71.6z"/>
</g>
<g>
	<path d="M139.4,93.6h-4.1V98H134V88h6.1v1.1h-4.8v3.4h4.1V93.6z"/>
	<path d="M145.5,98.1c-0.5,0-1-0.1-1.4-0.3s-0.8-0.4-1.1-0.7s-0.6-0.7-0.7-1.1s-0.3-0.9-0.3-1.4v-0.3c0-0.6,0.1-1.1,0.3-1.6
		c0.2-0.5,0.4-0.9,0.8-1.2c0.3-0.3,0.7-0.6,1.1-0.7s0.8-0.3,1.2-0.3c0.5,0,1,0.1,1.4,0.3c0.4,0.2,0.7,0.4,1,0.8
		c0.3,0.3,0.5,0.7,0.6,1.2s0.2,0.9,0.2,1.4v0.6h-5.3c0,0.3,0.1,0.7,0.2,1s0.3,0.6,0.5,0.8c0.2,0.2,0.4,0.4,0.7,0.5s0.6,0.2,0.9,0.2
		c0.5,0,0.9-0.1,1.2-0.3s0.6-0.4,0.9-0.7l0.8,0.6c-0.1,0.2-0.3,0.4-0.5,0.5c-0.2,0.2-0.4,0.3-0.6,0.5s-0.5,0.2-0.8,0.3
		C146.2,98.1,145.9,98.1,145.5,98.1z M145.4,91.5c-0.3,0-0.5,0-0.7,0.1c-0.2,0.1-0.4,0.2-0.6,0.4c-0.2,0.2-0.3,0.4-0.5,0.7
		c-0.1,0.3-0.2,0.6-0.3,0.9h4v-0.1c0-0.2-0.1-0.5-0.1-0.7s-0.2-0.5-0.4-0.6s-0.3-0.3-0.6-0.5S145.7,91.5,145.4,91.5z"/>
	<path d="M151.3,90.6l0,0.7c0.2-0.3,0.3-0.5,0.6-0.6s0.5-0.2,0.9-0.2c0.7,0,1.1,0.3,1.4,0.8c0.1-0.2,0.3-0.4,0.6-0.6
		c0.2-0.1,0.5-0.2,0.9-0.2c0.5,0,1,0.2,1.3,0.5s0.4,0.8,0.4,1.5V98h-1.2v-5.5c0-0.6-0.3-0.9-0.9-0.9c-0.2,0-0.3,0-0.4,0.1
		s-0.2,0.1-0.3,0.2c-0.1,0.1-0.1,0.2-0.2,0.2c0,0.1-0.1,0.2-0.1,0.3V98h-1.2v-5.5c0-0.3-0.1-0.5-0.2-0.7s-0.3-0.2-0.6-0.2
		c-0.3,0-0.5,0.1-0.6,0.2s-0.3,0.2-0.3,0.4V98h-1.2v-7.4H151.3z"/>
	<path d="M163.9,98c-0.1-0.1-0.1-0.2-0.1-0.4c0-0.1-0.1-0.3-0.1-0.4c-0.1,0.1-0.3,0.2-0.4,0.4s-0.3,0.2-0.5,0.3s-0.4,0.2-0.6,0.2
		s-0.4,0.1-0.7,0.1c-0.4,0-0.7-0.1-1.1-0.2s-0.6-0.3-0.8-0.5c-0.2-0.2-0.4-0.4-0.5-0.7c-0.1-0.3-0.2-0.6-0.2-0.9
		c0-0.4,0.1-0.8,0.2-1.1s0.4-0.6,0.7-0.8c0.3-0.2,0.7-0.4,1.1-0.5s0.9-0.2,1.4-0.2h1.4v-0.6c0-0.2,0-0.4-0.1-0.6s-0.2-0.3-0.3-0.5
		c-0.2-0.1-0.3-0.2-0.6-0.3s-0.5-0.1-0.7-0.1c-0.3,0-0.5,0-0.7,0.1s-0.4,0.1-0.5,0.3s-0.2,0.2-0.3,0.4c-0.1,0.1-0.1,0.3-0.1,0.4
		h-1.3c0-0.3,0.1-0.5,0.2-0.8s0.3-0.5,0.6-0.7c0.3-0.2,0.6-0.4,0.9-0.5s0.8-0.2,1.2-0.2c0.4,0,0.8,0.1,1.2,0.2
		c0.4,0.1,0.7,0.3,0.9,0.5c0.3,0.2,0.5,0.5,0.6,0.8s0.2,0.7,0.2,1.1v3.4c0,0.2,0,0.5,0.1,0.8c0,0.3,0.1,0.5,0.2,0.7V98H163.9z
		 M161.7,97c0.2,0,0.5,0,0.7-0.1s0.4-0.1,0.6-0.3s0.3-0.2,0.5-0.4c0.1-0.1,0.2-0.3,0.3-0.4v-1.5h-1.2c-0.7,0-1.3,0.1-1.7,0.3
		s-0.6,0.6-0.6,1c0,0.2,0,0.4,0.1,0.5s0.2,0.3,0.3,0.4c0.1,0.1,0.3,0.2,0.5,0.3S161.5,97,161.7,97z"/>
	<path d="M167.7,87.5h3.8v9.4h2.4V98h-6.2v-1.1h2.5v-8.3h-2.5V87.5z"/>
	<path d="M179.2,98.1c-0.5,0-1-0.1-1.4-0.3s-0.8-0.4-1.1-0.7s-0.6-0.7-0.7-1.1s-0.3-0.9-0.3-1.4v-0.3c0-0.6,0.1-1.1,0.3-1.6
		c0.2-0.5,0.4-0.9,0.8-1.2c0.3-0.3,0.7-0.6,1.1-0.7s0.8-0.3,1.2-0.3c0.5,0,1,0.1,1.4,0.3c0.4,0.2,0.7,0.4,1,0.8
		c0.3,0.3,0.5,0.7,0.6,1.2s0.2,0.9,0.2,1.4v0.6h-5.3c0,0.3,0.1,0.7,0.2,1s0.3,0.6,0.5,0.8c0.2,0.2,0.4,0.4,0.7,0.5s0.6,0.2,0.9,0.2
		c0.5,0,0.9-0.1,1.2-0.3s0.6-0.4,0.9-0.7l0.8,0.6c-0.1,0.2-0.3,0.4-0.5,0.5c-0.2,0.2-0.4,0.3-0.6,0.5s-0.5,0.2-0.8,0.3
		C179.8,98.1,179.5,98.1,179.2,98.1z M179,91.5c-0.3,0-0.5,0-0.7,0.1c-0.2,0.1-0.4,0.2-0.6,0.4c-0.2,0.2-0.3,0.4-0.5,0.7
		c-0.1,0.3-0.2,0.6-0.3,0.9h4v-0.1c0-0.2-0.1-0.5-0.1-0.7s-0.2-0.5-0.4-0.6s-0.3-0.3-0.6-0.5S179.3,91.5,179,91.5z"/>
</g>
<g>
	<path d="M135.3,107.9l1.6,5l1.8-5h1.6v10H139v-4l0.1-4.2l-1.8,5.4h-0.7l-1.7-5.2l0.1,4v4h-1.2v-10H135.3z"/>
	<path d="M147.1,117.9c-0.1-0.1-0.1-0.2-0.1-0.4c0-0.1-0.1-0.3-0.1-0.4c-0.1,0.1-0.3,0.2-0.4,0.4s-0.3,0.2-0.5,0.3s-0.4,0.2-0.6,0.2
		s-0.4,0.1-0.7,0.1c-0.4,0-0.7-0.1-1.1-0.2s-0.6-0.3-0.8-0.5c-0.2-0.2-0.4-0.4-0.5-0.7c-0.1-0.3-0.2-0.6-0.2-0.9
		c0-0.4,0.1-0.8,0.2-1.1s0.4-0.6,0.7-0.8c0.3-0.2,0.7-0.4,1.1-0.5s0.9-0.2,1.4-0.2h1.4v-0.6c0-0.2,0-0.4-0.1-0.6s-0.2-0.3-0.3-0.5
		c-0.2-0.1-0.3-0.2-0.6-0.3s-0.5-0.1-0.7-0.1c-0.3,0-0.5,0-0.7,0.1s-0.4,0.1-0.5,0.3s-0.2,0.2-0.3,0.4c-0.1,0.1-0.1,0.3-0.1,0.4
		h-1.3c0-0.3,0.1-0.5,0.2-0.8s0.3-0.5,0.6-0.7c0.3-0.2,0.6-0.4,0.9-0.5s0.8-0.2,1.2-0.2c0.4,0,0.8,0.1,1.2,0.2
		c0.4,0.1,0.7,0.3,0.9,0.5c0.3,0.2,0.5,0.5,0.6,0.8s0.2,0.7,0.2,1.1v3.4c0,0.2,0,0.5,0.1,0.8c0,0.3,0.1,0.5,0.2,0.7v0.1H147.1z
		 M144.9,116.9c0.2,0,0.5,0,0.7-0.1s0.4-0.1,0.6-0.3s0.3-0.2,0.5-0.4c0.1-0.1,0.2-0.3,0.3-0.4v-1.5h-1.2c-0.7,0-1.3,0.1-1.7,0.3
		s-0.6,0.6-0.6,1c0,0.2,0,0.4,0.1,0.5s0.2,0.3,0.3,0.4c0.1,0.1,0.3,0.2,0.5,0.3S144.7,116.9,144.9,116.9z"/>
	<path d="M150.9,107.4h3.8v9.4h2.4v1.1h-6.2v-1.1h2.5v-8.3h-2.5V107.4z"/>
	<path d="M162.4,118c-0.5,0-1-0.1-1.4-0.3s-0.8-0.4-1.1-0.7s-0.6-0.7-0.7-1.1s-0.3-0.9-0.3-1.4v-0.3c0-0.6,0.1-1.1,0.3-1.6
		c0.2-0.5,0.4-0.9,0.8-1.2c0.3-0.3,0.7-0.6,1.1-0.7s0.8-0.3,1.2-0.3c0.5,0,1,0.1,1.4,0.3c0.4,0.2,0.7,0.4,1,0.8
		c0.3,0.3,0.5,0.7,0.6,1.2s0.2,0.9,0.2,1.4v0.6h-5.3c0,0.3,0.1,0.7,0.2,1s0.3,0.6,0.5,0.8c0.2,0.2,0.4,0.4,0.7,0.5s0.6,0.2,0.9,0.2
		c0.5,0,0.9-0.1,1.2-0.3s0.6-0.4,0.9-0.7l0.8,0.6c-0.1,0.2-0.3,0.4-0.5,0.5c-0.2,0.2-0.4,0.3-0.6,0.5s-0.5,0.2-0.8,0.3
		C163,118,162.7,118,162.4,118z M162.2,111.4c-0.3,0-0.5,0-0.7,0.1c-0.2,0.1-0.4,0.2-0.6,0.4c-0.2,0.2-0.3,0.4-0.5,0.7
		c-0.1,0.3-0.2,0.6-0.3,0.9h4v-0.1c0-0.2-0.1-0.5-0.1-0.7s-0.2-0.5-0.4-0.6s-0.3-0.3-0.6-0.5S162.5,111.4,162.2,111.4z"/>
</g>
<linearGradient id="SVGID_2_" gradientUnits="userSpaceOnUse" x1="61.7974" y1="54.3732" x2="124.4533" y2="54.3732">
	<stop  offset="0" style="stop-color:#FA8A9C"/>
	<stop  offset="0.1649" style="stop-color:#E696AE"/>
	<stop  offset="0.7323" style="stop-color:#A5BEE8"/>
	<stop  offset="1" style="stop-color:#8CCDFF"/>
</linearGradient>
<line fill="none" stroke="url(#SVGID_2_)" stroke-width="2" stroke-miterlimit="10" x1="61.8" y1="54.4" x2="124.5" y2="54.4"/>
<linearGradient id="SVGID_3_" gradientUnits="userSpaceOnUse" x1="124.4533" y1="73.0042" x2="61.7974" y2="73.0042">
	<stop  offset="0" style="stop-color:#FA8A9C"/>
	<stop  offset="0.1649" style="stop-color:#E696AE"/>
	<stop  offset="0.7323" style="stop-color:#A5BEE8"/>
	<stop  offset="1" style="stop-color:#8CCDFF"/>
</linearGradient>
<line fill="none" stroke="url(#SVGID_3_)" stroke-width="2" stroke-miterlimit="10" x1="61.8" y1="73" x2="124.5" y2="73"/>
<line fill="none" stroke="#FA8A9C" stroke-width="2" stroke-miterlimit="10" x1="61.8" y1="92.9" x2="124.5" y2="92.9"/>
<line fill="none" stroke="#8CCDFF" stroke-width="2" stroke-miterlimit="10" x1="61.8" y1="112.8" x2="124.5" y2="112.8"/>
<g>
	<path d="M216.1,93l1.6,5l1.8-5h1.6v10h-1.2v-4l0.1-4.2l-1.8,5.4h-0.7l-1.7-5.2l0.1,4v4h-1.2V93H216.1z"/>
	<path d="M227.9,102.9c0-0.1-0.1-0.2-0.1-0.4c0-0.1-0.1-0.3-0.1-0.4c-0.1,0.1-0.3,0.2-0.4,0.4c-0.2,0.1-0.3,0.2-0.5,0.3
		c-0.2,0.1-0.4,0.2-0.6,0.2s-0.4,0.1-0.7,0.1c-0.4,0-0.7-0.1-1.1-0.2c-0.3-0.1-0.6-0.3-0.8-0.5c-0.2-0.2-0.4-0.4-0.5-0.7
		c-0.1-0.3-0.2-0.6-0.2-0.9c0-0.4,0.1-0.8,0.2-1.1c0.2-0.3,0.4-0.6,0.7-0.8c0.3-0.2,0.7-0.4,1.1-0.5c0.4-0.1,0.9-0.2,1.4-0.2h1.4
		v-0.6c0-0.2,0-0.4-0.1-0.6s-0.2-0.3-0.3-0.5c-0.2-0.1-0.3-0.2-0.6-0.3c-0.2-0.1-0.5-0.1-0.7-0.1c-0.3,0-0.5,0-0.7,0.1
		c-0.2,0.1-0.4,0.1-0.5,0.3s-0.2,0.2-0.3,0.4c-0.1,0.1-0.1,0.3-0.1,0.4h-1.3c0-0.3,0.1-0.5,0.2-0.8c0.1-0.3,0.3-0.5,0.6-0.7
		c0.3-0.2,0.6-0.4,0.9-0.5c0.4-0.1,0.8-0.2,1.2-0.2c0.4,0,0.8,0.1,1.2,0.2c0.4,0.1,0.7,0.3,0.9,0.5c0.3,0.2,0.5,0.5,0.6,0.8
		s0.2,0.7,0.2,1.1v3.4c0,0.2,0,0.5,0.1,0.8c0,0.3,0.1,0.5,0.2,0.7v0.1H227.9z M225.7,102c0.2,0,0.5,0,0.7-0.1s0.4-0.1,0.6-0.3
		c0.2-0.1,0.3-0.2,0.5-0.4c0.1-0.1,0.2-0.3,0.3-0.4v-1.5h-1.2c-0.7,0-1.3,0.1-1.7,0.3s-0.6,0.6-0.6,1c0,0.2,0,0.4,0.1,0.5
		c0.1,0.2,0.2,0.3,0.3,0.4c0.1,0.1,0.3,0.2,0.5,0.3S225.5,102,225.7,102z"/>
	<path d="M236.3,95.4c0.1,0,0.2,0,0.4,0c0.1,0,0.2,0,0.4,0c0.1,0,0.2,0,0.3,0.1c0.1,0,0.2,0,0.2,0.1l-0.2,1.2
		c-0.2-0.1-0.5-0.1-0.7-0.1c-0.2,0-0.5,0-0.7,0c-0.6,0-1.1,0.1-1.4,0.4c-0.4,0.3-0.6,0.6-0.8,1.1v4.7h-1.3v-7.4h1.2l0.1,1.2
		c0.3-0.4,0.7-0.7,1.1-1C235.3,95.5,235.8,95.4,236.3,95.4z"/>
	<path d="M244.7,95.4c0.1,0,0.2,0,0.4,0c0.1,0,0.2,0,0.4,0c0.1,0,0.2,0,0.3,0.1c0.1,0,0.2,0,0.2,0.1l-0.2,1.2
		c-0.2-0.1-0.5-0.1-0.7-0.1c-0.2,0-0.5,0-0.7,0c-0.6,0-1.1,0.1-1.4,0.4c-0.4,0.3-0.6,0.6-0.8,1.1v4.7h-1.3v-7.4h1.2l0.1,1.2
		c0.3-0.4,0.7-0.7,1.1-1C243.7,95.5,244.2,95.4,244.7,95.4z"/>
	<path d="M248.5,95.5h3.8v6.3h2.4v1.1h-6.2v-1.1h2.5v-5.2h-2.5V95.5z M250.8,93.6c0-0.2,0.1-0.4,0.2-0.5c0.1-0.1,0.3-0.2,0.6-0.2
		c0.3,0,0.4,0.1,0.6,0.2c0.1,0.1,0.2,0.3,0.2,0.5c0,0.2-0.1,0.4-0.2,0.5s-0.3,0.2-0.6,0.2c-0.3,0-0.4-0.1-0.6-0.2
		C250.9,94,250.8,93.8,250.8,93.6z"/>
	<path d="M260,103.1c-0.5,0-1-0.1-1.4-0.3c-0.4-0.2-0.8-0.4-1.1-0.7s-0.6-0.7-0.7-1.1s-0.3-0.9-0.3-1.4v-0.3c0-0.6,0.1-1.1,0.3-1.6
		c0.2-0.5,0.4-0.9,0.8-1.2c0.3-0.3,0.7-0.6,1.1-0.7c0.4-0.2,0.8-0.3,1.2-0.3c0.5,0,1,0.1,1.4,0.3c0.4,0.2,0.7,0.4,1,0.8
		c0.3,0.3,0.5,0.7,0.6,1.2c0.1,0.4,0.2,0.9,0.2,1.4v0.6h-5.3c0,0.3,0.1,0.7,0.2,1c0.1,0.3,0.3,0.6,0.5,0.8c0.2,0.2,0.4,0.4,0.7,0.5
		s0.6,0.2,0.9,0.2c0.5,0,0.9-0.1,1.2-0.3s0.6-0.4,0.9-0.7l0.8,0.6c-0.1,0.2-0.3,0.4-0.5,0.5c-0.2,0.2-0.4,0.3-0.6,0.5
		s-0.5,0.2-0.8,0.3C260.7,103,260.3,103.1,260,103.1z M259.8,96.4c-0.3,0-0.5,0-0.7,0.1c-0.2,0.1-0.4,0.2-0.6,0.4
		c-0.2,0.2-0.3,0.4-0.5,0.7c-0.1,0.3-0.2,0.6-0.3,0.9h4v-0.1c0-0.2-0.1-0.5-0.1-0.7c-0.1-0.2-0.2-0.5-0.4-0.6s-0.3-0.3-0.6-0.5
		C260.4,96.5,260.1,96.4,259.8,96.4z"/>
	<path d="M270,101c0-0.2,0-0.3-0.1-0.4c-0.1-0.1-0.2-0.2-0.3-0.3s-0.3-0.2-0.6-0.3c-0.2-0.1-0.5-0.2-0.9-0.2
		c-0.4-0.1-0.8-0.2-1.2-0.3c-0.3-0.1-0.6-0.3-0.9-0.4c-0.2-0.2-0.4-0.4-0.6-0.6c-0.1-0.2-0.2-0.5-0.2-0.8c0-0.3,0.1-0.6,0.2-0.8
		c0.1-0.3,0.3-0.5,0.6-0.7s0.6-0.4,0.9-0.5c0.4-0.1,0.7-0.2,1.2-0.2c0.5,0,0.9,0.1,1.2,0.2s0.7,0.3,0.9,0.5s0.5,0.5,0.6,0.7
		c0.1,0.3,0.2,0.6,0.2,0.9h-1.3c0-0.2,0-0.3-0.1-0.5c-0.1-0.2-0.2-0.3-0.3-0.4s-0.3-0.2-0.5-0.3c-0.2-0.1-0.4-0.1-0.7-0.1
		c-0.3,0-0.5,0-0.7,0.1c-0.2,0.1-0.4,0.1-0.5,0.2c-0.1,0.1-0.2,0.2-0.3,0.3s-0.1,0.3-0.1,0.4c0,0.1,0,0.3,0.1,0.4s0.1,0.2,0.3,0.3
		c0.1,0.1,0.3,0.2,0.5,0.2c0.2,0.1,0.5,0.1,0.9,0.2c0.5,0.1,0.9,0.2,1.2,0.3c0.4,0.1,0.7,0.3,0.9,0.5c0.2,0.2,0.4,0.4,0.6,0.6
		c0.1,0.2,0.2,0.5,0.2,0.8c0,0.3-0.1,0.6-0.2,0.9c-0.1,0.3-0.4,0.5-0.6,0.7s-0.6,0.3-1,0.4s-0.8,0.2-1.2,0.2c-0.5,0-0.9-0.1-1.3-0.2
		c-0.4-0.1-0.7-0.3-1-0.5c-0.3-0.2-0.5-0.5-0.6-0.8c-0.1-0.3-0.2-0.6-0.2-0.9h1.3c0,0.3,0.1,0.5,0.2,0.7c0.1,0.2,0.3,0.3,0.5,0.4
		c0.2,0.1,0.4,0.2,0.6,0.2s0.4,0.1,0.6,0.1c0.5,0,1-0.1,1.3-0.3S270,101.3,270,101z"/>
	<path d="M283,100.3l0.2,1.1l0.2-1.1l1.2-4.7h0.8l1.2,4.7l0.2,1.2l0.2-1.2l0.8-4.7h1.1l-1.6,7.4h-1l-1.2-4.5l-0.2-1.1l-0.2,1.1
		l-1.1,4.5h-1l-1.6-7.4h1.1L283,100.3z"/>
	<path d="M290.5,95.5h3.8v6.3h2.4v1.1h-6.2v-1.1h2.5v-5.2h-2.5V95.5z M292.8,93.6c0-0.2,0.1-0.4,0.2-0.5c0.1-0.1,0.3-0.2,0.6-0.2
		c0.3,0,0.4,0.1,0.6,0.2c0.1,0.1,0.2,0.3,0.2,0.5c0,0.2-0.1,0.4-0.2,0.5s-0.3,0.2-0.6,0.2c-0.3,0-0.4-0.1-0.6-0.2
		C292.9,94,292.8,93.8,292.8,93.6z"/>
	<path d="M301.7,93.7v1.8h2.8v1h-2.8v4c0,0.3,0,0.5,0.1,0.7s0.2,0.3,0.3,0.4c0.1,0.1,0.3,0.2,0.4,0.2c0.2,0,0.3,0.1,0.5,0.1
		c0.1,0,0.3,0,0.4,0c0.1,0,0.3,0,0.4-0.1c0.1,0,0.3,0,0.4-0.1c0.1,0,0.2,0,0.3-0.1l0.2,0.9c-0.1,0.1-0.2,0.1-0.4,0.2
		c-0.2,0-0.3,0.1-0.5,0.1c-0.2,0-0.4,0.1-0.6,0.1c-0.2,0-0.4,0-0.6,0c-0.3,0-0.6,0-0.9-0.1c-0.3-0.1-0.5-0.2-0.7-0.4
		c-0.2-0.2-0.4-0.5-0.5-0.8c-0.1-0.3-0.2-0.7-0.2-1.2v-4h-1.9v-1h1.9v-1.8H301.7z"/>
	<path d="M308.4,96.6c0.3-0.4,0.6-0.7,1-0.9c0.4-0.2,0.8-0.3,1.3-0.3c0.4,0,0.7,0.1,1.1,0.2c0.3,0.1,0.6,0.3,0.8,0.5
		s0.4,0.5,0.5,0.9c0.1,0.4,0.2,0.8,0.2,1.3v4.7h-1.3v-4.7c0-0.6-0.1-1.1-0.4-1.4c-0.3-0.3-0.7-0.4-1.2-0.4c-0.4,0-0.8,0.1-1.1,0.3
		c-0.3,0.2-0.6,0.5-0.8,0.8v5.4h-1.3V92.4h1.3V96.6z"/>
	<path d="M315.7,95.5h3.8v6.3h2.4v1.1h-6.2v-1.1h2.5v-5.2h-2.5V95.5z M318.1,93.6c0-0.2,0.1-0.4,0.2-0.5c0.1-0.1,0.3-0.2,0.6-0.2
		c0.3,0,0.4,0.1,0.6,0.2c0.1,0.1,0.2,0.3,0.2,0.5c0,0.2-0.1,0.4-0.2,0.5s-0.3,0.2-0.6,0.2c-0.3,0-0.4-0.1-0.6-0.2
		C318.1,94,318.1,93.8,318.1,93.6z"/>
	<path d="M325,95.5l0.1,1.1c0.3-0.4,0.6-0.7,1-0.9c0.4-0.2,0.8-0.3,1.3-0.3c0.4,0,0.7,0.1,1.1,0.2c0.3,0.1,0.6,0.3,0.8,0.5
		s0.4,0.5,0.5,0.9c0.1,0.4,0.2,0.8,0.2,1.3v4.7h-1.3v-4.7c0-0.3,0-0.6-0.1-0.8s-0.2-0.4-0.3-0.6c-0.1-0.1-0.3-0.2-0.5-0.3
		c-0.2-0.1-0.4-0.1-0.7-0.1c-0.4,0-0.8,0.1-1.1,0.3c-0.3,0.2-0.6,0.5-0.8,0.8v5.3h-1.3v-7.4H325z"/>
	<path d="M231.1,114.1c0-0.5,0.1-1,0.2-1.5c0.2-0.5,0.4-0.9,0.7-1.2c0.3-0.3,0.6-0.6,1.1-0.8c0.4-0.2,0.9-0.3,1.4-0.3
		c0.5,0,1,0.1,1.4,0.3c0.4,0.2,0.8,0.5,1.1,0.8c0.3,0.3,0.5,0.7,0.7,1.2c0.2,0.5,0.2,1,0.2,1.5v0.2c0,0.5-0.1,1-0.2,1.5
		s-0.4,0.9-0.7,1.2c-0.3,0.3-0.6,0.6-1.1,0.8s-0.9,0.3-1.4,0.3c-0.5,0-1-0.1-1.4-0.3c-0.4-0.2-0.8-0.5-1.1-0.8
		c-0.3-0.3-0.5-0.7-0.7-1.2s-0.2-1-0.2-1.5V114.1z M232.4,114.2c0,0.4,0,0.7,0.1,1c0.1,0.3,0.2,0.6,0.4,0.9c0.2,0.3,0.4,0.4,0.7,0.6
		s0.6,0.2,0.9,0.2c0.3,0,0.7-0.1,0.9-0.2c0.3-0.1,0.5-0.3,0.7-0.6c0.2-0.3,0.3-0.5,0.4-0.9c0.1-0.3,0.1-0.7,0.1-1v-0.2
		c0-0.4,0-0.7-0.1-1c-0.1-0.3-0.2-0.6-0.4-0.9c-0.2-0.3-0.4-0.5-0.7-0.6c-0.3-0.1-0.6-0.2-0.9-0.2s-0.7,0.1-0.9,0.2
		c-0.3,0.1-0.5,0.3-0.7,0.6c-0.2,0.3-0.3,0.5-0.4,0.9c-0.1,0.3-0.1,0.7-0.1,1V114.2z"/>
	<path d="M243,117c0.2,0,0.5,0,0.7-0.1c0.2-0.1,0.4-0.2,0.6-0.3c0.2-0.1,0.3-0.3,0.4-0.5c0.1-0.2,0.2-0.4,0.2-0.6h1.2
		c0,0.3-0.1,0.6-0.3,0.9c-0.2,0.3-0.4,0.6-0.7,0.8c-0.3,0.2-0.6,0.4-1,0.5c-0.4,0.1-0.7,0.2-1.1,0.2c-0.6,0-1.1-0.1-1.5-0.3
		s-0.8-0.5-1-0.8c-0.3-0.3-0.5-0.7-0.6-1.2c-0.1-0.4-0.2-0.9-0.2-1.4V114c0-0.5,0.1-1,0.2-1.4s0.4-0.8,0.6-1.2
		c0.3-0.3,0.6-0.6,1-0.8s0.9-0.3,1.5-0.3c0.4,0,0.8,0.1,1.2,0.2c0.4,0.1,0.7,0.3,1,0.6c0.3,0.2,0.5,0.5,0.6,0.9s0.2,0.7,0.2,1.1
		h-1.2c0-0.2-0.1-0.4-0.1-0.6c-0.1-0.2-0.2-0.4-0.4-0.5s-0.3-0.3-0.6-0.4c-0.2-0.1-0.5-0.1-0.7-0.1c-0.4,0-0.7,0.1-1,0.2
		c-0.3,0.2-0.5,0.4-0.6,0.6c-0.2,0.3-0.3,0.5-0.4,0.9c-0.1,0.3-0.1,0.6-0.1,1v0.3c0,0.3,0,0.6,0.1,1c0.1,0.3,0.2,0.6,0.3,0.9
		c0.2,0.3,0.4,0.5,0.6,0.6C242.3,116.9,242.6,117,243,117z"/>
	<path d="M251.4,117c0.2,0,0.5,0,0.7-0.1c0.2-0.1,0.4-0.2,0.6-0.3c0.2-0.1,0.3-0.3,0.4-0.5c0.1-0.2,0.2-0.4,0.2-0.6h1.2
		c0,0.3-0.1,0.6-0.3,0.9c-0.2,0.3-0.4,0.6-0.7,0.8c-0.3,0.2-0.6,0.4-1,0.5c-0.4,0.1-0.7,0.2-1.1,0.2c-0.6,0-1.1-0.1-1.5-0.3
		s-0.8-0.5-1-0.8c-0.3-0.3-0.5-0.7-0.6-1.2c-0.1-0.4-0.2-0.9-0.2-1.4V114c0-0.5,0.1-1,0.2-1.4s0.4-0.8,0.6-1.2
		c0.3-0.3,0.6-0.6,1-0.8s0.9-0.3,1.5-0.3c0.4,0,0.8,0.1,1.2,0.2c0.4,0.1,0.7,0.3,1,0.6c0.3,0.2,0.5,0.5,0.6,0.9s0.2,0.7,0.2,1.1
		h-1.2c0-0.2-0.1-0.4-0.1-0.6c-0.1-0.2-0.2-0.4-0.4-0.5s-0.3-0.3-0.6-0.4c-0.2-0.1-0.5-0.1-0.7-0.1c-0.4,0-0.7,0.1-1,0.2
		c-0.3,0.2-0.5,0.4-0.6,0.6c-0.2,0.3-0.3,0.5-0.4,0.9c-0.1,0.3-0.1,0.6-0.1,1v0.3c0,0.3,0,0.6,0.1,1c0.1,0.3,0.2,0.6,0.3,0.9
		c0.2,0.3,0.4,0.5,0.6,0.6C250.7,116.9,251,117,251.4,117z"/>
	<path d="M261.5,116.8c-0.2,0.4-0.6,0.6-0.9,0.9c-0.4,0.2-0.8,0.3-1.3,0.3c-0.4,0-0.7-0.1-1.1-0.2c-0.3-0.1-0.6-0.3-0.8-0.6
		s-0.4-0.6-0.5-1c-0.1-0.4-0.2-0.9-0.2-1.4v-4.4h1.3v4.4c0,0.4,0,0.7,0.1,1s0.2,0.5,0.3,0.6c0.1,0.2,0.3,0.3,0.5,0.3
		c0.2,0.1,0.4,0.1,0.6,0.1c0.5,0,0.9-0.1,1.2-0.3c0.3-0.2,0.6-0.5,0.7-0.8v-5.3h1.3v7.4h-1.1L261.5,116.8z"/>
	<path d="M271.3,114.2c0,0.5-0.1,1-0.2,1.5c-0.1,0.5-0.3,0.9-0.6,1.2s-0.5,0.6-0.9,0.8c-0.4,0.2-0.8,0.3-1.2,0.3
		c-0.5,0-0.8-0.1-1.2-0.2c-0.3-0.1-0.6-0.4-0.9-0.6v3.6h-1.3v-10.2h1.2l0.1,0.8c0.2-0.3,0.5-0.5,0.9-0.7c0.3-0.2,0.8-0.2,1.2-0.2
		c0.5,0,0.9,0.1,1.3,0.3s0.7,0.4,0.9,0.8s0.4,0.7,0.6,1.2c0.1,0.5,0.2,1,0.2,1.5V114.2z M270.1,114.1c0-0.4,0-0.7-0.1-1
		c-0.1-0.3-0.2-0.6-0.4-0.9c-0.2-0.2-0.4-0.4-0.6-0.6s-0.6-0.2-0.9-0.2c-0.4,0-0.7,0.1-1,0.3c-0.3,0.2-0.5,0.4-0.7,0.7v3.6
		c0.2,0.3,0.4,0.5,0.7,0.7c0.3,0.2,0.6,0.3,1,0.3c0.4,0,0.7-0.1,0.9-0.2c0.3-0.1,0.5-0.3,0.6-0.6s0.3-0.5,0.4-0.9
		c0.1-0.3,0.1-0.7,0.1-1V114.1z"/>
	<path d="M278.4,117.9c0-0.1-0.1-0.2-0.1-0.4c0-0.1-0.1-0.3-0.1-0.4c-0.1,0.1-0.3,0.2-0.4,0.4c-0.2,0.1-0.3,0.2-0.5,0.3
		c-0.2,0.1-0.4,0.2-0.6,0.2s-0.4,0.1-0.7,0.1c-0.4,0-0.7-0.1-1.1-0.2c-0.3-0.1-0.6-0.3-0.8-0.5c-0.2-0.2-0.4-0.4-0.5-0.7
		c-0.1-0.3-0.2-0.6-0.2-0.9c0-0.4,0.1-0.8,0.2-1.1c0.2-0.3,0.4-0.6,0.7-0.8c0.3-0.2,0.7-0.4,1.1-0.5c0.4-0.1,0.9-0.2,1.4-0.2h1.4
		v-0.6c0-0.2,0-0.4-0.1-0.6s-0.2-0.3-0.3-0.5c-0.2-0.1-0.3-0.2-0.6-0.3c-0.2-0.1-0.5-0.1-0.7-0.1c-0.3,0-0.5,0-0.7,0.1
		c-0.2,0.1-0.4,0.1-0.5,0.3s-0.2,0.2-0.3,0.4c-0.1,0.1-0.1,0.3-0.1,0.4h-1.3c0-0.3,0.1-0.5,0.2-0.8c0.1-0.3,0.3-0.5,0.6-0.7
		c0.3-0.2,0.6-0.4,0.9-0.5c0.4-0.1,0.8-0.2,1.2-0.2c0.4,0,0.8,0.1,1.2,0.2c0.4,0.1,0.7,0.3,0.9,0.5c0.3,0.2,0.5,0.5,0.6,0.8
		s0.2,0.7,0.2,1.1v3.4c0,0.2,0,0.5,0.1,0.8c0,0.3,0.1,0.5,0.2,0.7v0.1H278.4z M276.1,116.9c0.2,0,0.5,0,0.7-0.1s0.4-0.1,0.6-0.3
		c0.2-0.1,0.3-0.2,0.5-0.4c0.1-0.1,0.2-0.3,0.3-0.4v-1.5H277c-0.7,0-1.3,0.1-1.7,0.3s-0.6,0.6-0.6,1c0,0.2,0,0.4,0.1,0.5
		c0.1,0.2,0.2,0.3,0.3,0.4c0.1,0.1,0.3,0.2,0.5,0.3S275.9,116.9,276.1,116.9z"/>
	<path d="M284.9,108.7v1.8h2.8v1h-2.8v4c0,0.3,0,0.5,0.1,0.7s0.2,0.3,0.3,0.4c0.1,0.1,0.3,0.2,0.4,0.2c0.2,0,0.3,0.1,0.5,0.1
		c0.1,0,0.3,0,0.4,0c0.1,0,0.3,0,0.4-0.1c0.1,0,0.3,0,0.4-0.1c0.1,0,0.2,0,0.3-0.1l0.2,0.9c-0.1,0.1-0.2,0.1-0.4,0.2
		c-0.2,0-0.3,0.1-0.5,0.1c-0.2,0-0.4,0.1-0.6,0.1c-0.2,0-0.4,0-0.6,0c-0.3,0-0.6,0-0.9-0.1c-0.3-0.1-0.5-0.2-0.7-0.4
		c-0.2-0.2-0.4-0.5-0.5-0.8c-0.1-0.3-0.2-0.7-0.2-1.2v-4h-1.9v-1h1.9v-1.8H284.9z"/>
	<path d="M290.5,110.5h3.8v6.3h2.4v1.1h-6.2v-1.1h2.5v-5.2h-2.5V110.5z M292.8,108.5c0-0.2,0.1-0.4,0.2-0.5c0.1-0.1,0.3-0.2,0.6-0.2
		c0.3,0,0.4,0.1,0.6,0.2c0.1,0.1,0.2,0.3,0.2,0.5c0,0.2-0.1,0.4-0.2,0.5s-0.3,0.2-0.6,0.2c-0.3,0-0.4-0.1-0.6-0.2
		C292.9,108.9,292.8,108.7,292.8,108.5z"/>
	<path d="M298.3,114.1c0-0.5,0.1-1,0.2-1.5c0.2-0.5,0.4-0.9,0.7-1.2c0.3-0.3,0.6-0.6,1.1-0.8c0.4-0.2,0.9-0.3,1.4-0.3
		c0.5,0,1,0.1,1.4,0.3c0.4,0.2,0.8,0.5,1.1,0.8c0.3,0.3,0.5,0.7,0.7,1.2c0.2,0.5,0.2,1,0.2,1.5v0.2c0,0.5-0.1,1-0.2,1.5
		s-0.4,0.9-0.7,1.2c-0.3,0.3-0.6,0.6-1.1,0.8s-0.9,0.3-1.4,0.3c-0.5,0-1-0.1-1.4-0.3c-0.4-0.2-0.8-0.5-1.1-0.8
		c-0.3-0.3-0.5-0.7-0.7-1.2s-0.2-1-0.2-1.5V114.1z M299.6,114.2c0,0.4,0,0.7,0.1,1c0.1,0.3,0.2,0.6,0.4,0.9c0.2,0.3,0.4,0.4,0.7,0.6
		s0.6,0.2,0.9,0.2c0.3,0,0.7-0.1,0.9-0.2c0.3-0.1,0.5-0.3,0.7-0.6c0.2-0.3,0.3-0.5,0.4-0.9c0.1-0.3,0.1-0.7,0.1-1v-0.2
		c0-0.4,0-0.7-0.1-1c-0.1-0.3-0.2-0.6-0.4-0.9c-0.2-0.3-0.4-0.5-0.7-0.6c-0.3-0.1-0.6-0.2-0.9-0.2s-0.7,0.1-0.9,0.2
		c-0.3,0.1-0.5,0.3-0.7,0.6c-0.2,0.3-0.3,0.5-0.4,0.9c-0.1,0.3-0.1,0.7-0.1,1V114.2z"/>
	<path d="M308.2,110.5l0.1,1.1c0.3-0.4,0.6-0.7,1-0.9c0.4-0.2,0.8-0.3,1.3-0.3c0.4,0,0.7,0.1,1.1,0.2c0.3,0.1,0.6,0.3,0.8,0.5
		s0.4,0.5,0.5,0.9c0.1,0.4,0.2,0.8,0.2,1.3v4.7h-1.3v-4.7c0-0.3,0-0.6-0.1-0.8s-0.2-0.4-0.3-0.6c-0.1-0.1-0.3-0.2-0.5-0.3
		c-0.2-0.1-0.4-0.1-0.7-0.1c-0.4,0-0.8,0.1-1.1,0.3c-0.3,0.2-0.6,0.5-0.8,0.8v5.3h-1.3v-7.4H308.2z"/>
</g>
</svg>
